<?xml version="1.0" encoding="utf-8"?>
<!-- Generator: Adobe Illustrator 27.5.0, SVG Export Plug-In . SVG Version: 6.00 Build 0)  -->
<svg version="1.1" id="BACKGROUND" xmlns="http://www.w3.org/2000/svg" xmlns:xlink="http://www.w3.org/1999/xlink" x="0px" y="0px"
	 viewBox="0 0 750 500" style="enable-background:new 0 0 750 500;" xml:space="preserve">
<g>
	<g>
		<path style="fill:#DFE6C8;" d="M143.961,64.324c-1.108,0-2.007,0.899-2.007,2.007c0,1.107,0.899,2.006,2.007,2.006
			c1.108,0,2.007-0.899,2.007-2.006C145.968,65.222,145.069,64.324,143.961,64.324z"/>
		<path style="fill:#DFE6C8;" d="M155.521,64.324c-1.108,0-2.007,0.899-2.007,2.007c0,1.107,0.899,2.006,2.007,2.006
			c1.108,0,2.007-0.899,2.007-2.006C157.527,65.222,156.629,64.324,155.521,64.324z"/>
		<path style="fill:#DFE6C8;" d="M167.079,64.324c-1.108,0-2.007,0.899-2.007,2.007c0,1.107,0.898,2.006,2.007,2.006
			c1.109,0,2.007-0.899,2.007-2.006C169.087,65.222,168.188,64.324,167.079,64.324z"/>
		<path style="fill:#DFE6C8;" d="M178.639,64.324c-1.109,0-2.007,0.899-2.007,2.007c0,1.107,0.898,2.006,2.007,2.006
			c1.108,0,2.007-0.899,2.007-2.006C180.646,65.222,179.747,64.324,178.639,64.324z"/>
		<path style="fill:#DFE6C8;" d="M190.198,64.324c-1.108,0-2.007,0.899-2.007,2.007c0,1.107,0.899,2.006,2.007,2.006
			c1.108,0,2.007-0.899,2.007-2.006C192.205,65.222,191.307,64.324,190.198,64.324z"/>
		<path style="fill:#DFE6C8;" d="M149.583,73.012c-1.108,0-2.007,0.898-2.007,2.006c0,1.109,0.899,2.007,2.007,2.007
			s2.007-0.899,2.007-2.007C151.59,73.911,150.691,73.012,149.583,73.012z"/>
		<path style="fill:#DFE6C8;" d="M161.143,73.012c-1.109,0-2.007,0.898-2.007,2.006c0,1.109,0.899,2.007,2.007,2.007
			c1.108,0,2.007-0.899,2.007-2.007C163.149,73.911,162.251,73.012,161.143,73.012z"/>
		<path style="fill:#DFE6C8;" d="M172.701,73.012c-1.108,0-2.007,0.898-2.007,2.006c0,1.109,0.899,2.007,2.007,2.007
			c1.108,0,2.007-0.899,2.007-2.007C174.708,73.911,173.81,73.012,172.701,73.012z"/>
		<path style="fill:#DFE6C8;" d="M184.261,73.012c-1.108,0-2.007,0.898-2.007,2.006c0,1.109,0.899,2.007,2.007,2.007
			c1.108,0,2.007-0.899,2.007-2.007C186.268,73.911,185.369,73.012,184.261,73.012z"/>
		<path style="fill:#DFE6C8;" d="M195.82,73.012c-1.108,0-2.007,0.898-2.007,2.006c0,1.109,0.898,2.007,2.007,2.007
			c1.109,0,2.007-0.899,2.007-2.007C197.827,73.911,196.929,73.012,195.82,73.012z"/>
		<path style="fill:#DFE6C8;" d="M143.961,82.722c-1.108,0-2.007,0.899-2.007,2.007c0,1.108,0.899,2.007,2.007,2.007
			c1.108,0,2.007-0.899,2.007-2.007C145.968,83.621,145.069,82.722,143.961,82.722z"/>
		<path style="fill:#DFE6C8;" d="M155.521,82.722c-1.108,0-2.007,0.899-2.007,2.007c0,1.108,0.899,2.007,2.007,2.007
			c1.108,0,2.007-0.899,2.007-2.007C157.527,83.621,156.629,82.722,155.521,82.722z"/>
		<path style="fill:#DFE6C8;" d="M167.079,82.722c-1.108,0-2.007,0.899-2.007,2.007c0,1.108,0.898,2.007,2.007,2.007
			c1.109,0,2.007-0.899,2.007-2.007C169.087,83.621,168.188,82.722,167.079,82.722z"/>
		<path style="fill:#DFE6C8;" d="M178.639,82.722c-1.109,0-2.007,0.899-2.007,2.007c0,1.108,0.898,2.007,2.007,2.007
			c1.108,0,2.007-0.899,2.007-2.007C180.646,83.621,179.747,82.722,178.639,82.722z"/>
		<path style="fill:#DFE6C8;" d="M190.198,82.722c-1.108,0-2.007,0.899-2.007,2.007c0,1.108,0.899,2.007,2.007,2.007
			c1.108,0,2.007-0.899,2.007-2.007C192.205,83.621,191.307,82.722,190.198,82.722z"/>
		<path style="fill:#DFE6C8;" d="M149.583,91.411c-1.108,0-2.007,0.899-2.007,2.007c0,1.108,0.899,2.007,2.007,2.007
			s2.007-0.899,2.007-2.007C151.59,92.309,150.691,91.411,149.583,91.411z"/>
		<path style="fill:#DFE6C8;" d="M161.143,91.411c-1.109,0-2.007,0.899-2.007,2.007c0,1.108,0.899,2.007,2.007,2.007
			c1.108,0,2.007-0.899,2.007-2.007C163.149,92.309,162.251,91.411,161.143,91.411z"/>
		<path style="fill:#DFE6C8;" d="M172.701,91.411c-1.108,0-2.007,0.899-2.007,2.007c0,1.108,0.899,2.007,2.007,2.007
			c1.108,0,2.007-0.899,2.007-2.007C174.708,92.309,173.81,91.411,172.701,91.411z"/>
		<path style="fill:#DFE6C8;" d="M184.261,91.411c-1.108,0-2.007,0.899-2.007,2.007c0,1.108,0.899,2.007,2.007,2.007
			c1.108,0,2.007-0.899,2.007-2.007C186.268,92.309,185.369,91.411,184.261,91.411z"/>
		<path style="fill:#DFE6C8;" d="M195.82,91.411c-1.108,0-2.007,0.899-2.007,2.007c0,1.108,0.898,2.007,2.007,2.007
			c1.109,0,2.007-0.899,2.007-2.007C197.827,92.309,196.929,91.411,195.82,91.411z"/>
		<path style="fill:#DFE6C8;" d="M143.961,101.122c-1.108,0-2.007,0.899-2.007,2.007c0,1.107,0.899,2.006,2.007,2.006
			c1.108,0,2.007-0.899,2.007-2.006C145.968,102.02,145.069,101.122,143.961,101.122z"/>
		<path style="fill:#DFE6C8;" d="M155.521,101.122c-1.108,0-2.007,0.899-2.007,2.007c0,1.107,0.899,2.006,2.007,2.006
			c1.108,0,2.007-0.899,2.007-2.006C157.527,102.02,156.629,101.122,155.521,101.122z"/>
		<path style="fill:#DFE6C8;" d="M167.079,101.122c-1.108,0-2.007,0.899-2.007,2.007c0,1.107,0.898,2.006,2.007,2.006
			c1.109,0,2.007-0.899,2.007-2.006C169.087,102.02,168.188,101.122,167.079,101.122z"/>
		<path style="fill:#DFE6C8;" d="M178.639,101.122c-1.109,0-2.007,0.899-2.007,2.007c0,1.107,0.898,2.006,2.007,2.006
			c1.108,0,2.007-0.899,2.007-2.006C180.646,102.02,179.747,101.122,178.639,101.122z"/>
		<path style="fill:#DFE6C8;" d="M190.198,101.122c-1.108,0-2.007,0.899-2.007,2.007c0,1.107,0.899,2.006,2.007,2.006
			c1.108,0,2.007-0.899,2.007-2.006C192.205,102.02,191.307,101.122,190.198,101.122z"/>
		<path style="fill:#DFE6C8;" d="M149.583,109.81c-1.108,0-2.007,0.899-2.007,2.007s0.899,2.006,2.007,2.006
			s2.007-0.897,2.007-2.006S150.691,109.81,149.583,109.81z"/>
		<path style="fill:#DFE6C8;" d="M161.143,109.81c-1.109,0-2.007,0.899-2.007,2.007s0.899,2.006,2.007,2.006
			c1.108,0,2.007-0.897,2.007-2.006S162.251,109.81,161.143,109.81z"/>
		<path style="fill:#DFE6C8;" d="M172.701,109.81c-1.108,0-2.007,0.899-2.007,2.007s0.899,2.006,2.007,2.006
			c1.108,0,2.007-0.897,2.007-2.006S173.81,109.81,172.701,109.81z"/>
		<path style="fill:#DFE6C8;" d="M184.261,109.81c-1.108,0-2.007,0.899-2.007,2.007s0.899,2.006,2.007,2.006
			c1.108,0,2.007-0.897,2.007-2.006S185.369,109.81,184.261,109.81z"/>
		<path style="fill:#DFE6C8;" d="M195.82,109.81c-1.108,0-2.007,0.899-2.007,2.007s0.898,2.006,2.007,2.006
			c1.109,0,2.007-0.897,2.007-2.006S196.929,109.81,195.82,109.81z"/>
	</g>
	<g>
		<path style="fill:#DFE6C8;" d="M400.979,207.051c-1.108,0-2.007,0.899-2.007,2.007c0,1.107,0.899,2.006,2.007,2.006
			c1.108,0,2.007-0.899,2.007-2.006C402.986,207.949,402.087,207.051,400.979,207.051z"/>
		<path style="fill:#DFE6C8;" d="M412.538,207.051c-1.108,0-2.007,0.899-2.007,2.007c0,1.107,0.899,2.006,2.007,2.006
			c1.108,0,2.007-0.899,2.007-2.006C414.545,207.949,413.646,207.051,412.538,207.051z"/>
		<path style="fill:#DFE6C8;" d="M424.097,207.051c-1.108,0-2.007,0.899-2.007,2.007c0,1.107,0.898,2.006,2.007,2.006
			c1.109,0,2.007-0.899,2.007-2.006C426.104,207.949,425.206,207.051,424.097,207.051z"/>
		<path style="fill:#DFE6C8;" d="M435.657,207.051c-1.109,0-2.007,0.899-2.007,2.007c0,1.107,0.898,2.006,2.007,2.006
			c1.108,0,2.007-0.899,2.007-2.006C437.664,207.949,436.765,207.051,435.657,207.051z"/>
		<path style="fill:#DFE6C8;" d="M447.216,207.051c-1.108,0-2.007,0.899-2.007,2.007c0,1.107,0.899,2.006,2.007,2.006
			s2.007-0.899,2.007-2.006C449.223,207.949,448.325,207.051,447.216,207.051z"/>
		<path style="fill:#DFE6C8;" d="M406.601,215.739c-1.108,0-2.007,0.899-2.007,2.006c0,1.108,0.899,2.007,2.007,2.007
			c1.108,0,2.007-0.899,2.007-2.007C408.607,216.638,407.709,215.739,406.601,215.739z"/>
		<path style="fill:#DFE6C8;" d="M418.16,215.739c-1.108,0-2.007,0.899-2.007,2.006c0,1.108,0.898,2.007,2.007,2.007
			c1.108,0,2.007-0.899,2.007-2.007C420.167,216.638,419.269,215.739,418.16,215.739z"/>
		<path style="fill:#DFE6C8;" d="M429.719,215.739c-1.108,0-2.007,0.899-2.007,2.006c0,1.108,0.899,2.007,2.007,2.007
			c1.108,0,2.007-0.899,2.007-2.007C431.726,216.638,430.828,215.739,429.719,215.739z"/>
		<path style="fill:#DFE6C8;" d="M441.279,215.739c-1.108,0-2.007,0.899-2.007,2.006c0,1.108,0.899,2.007,2.007,2.007
			c1.108,0,2.007-0.899,2.007-2.007C443.286,216.638,442.387,215.739,441.279,215.739z"/>
		<path style="fill:#DFE6C8;" d="M452.838,215.739c-1.108,0-2.007,0.899-2.007,2.006c0,1.108,0.898,2.007,2.007,2.007
			c1.108,0,2.007-0.899,2.007-2.007C454.845,216.638,453.947,215.739,452.838,215.739z"/>
		<path style="fill:#DFE6C8;" d="M400.979,225.449c-1.108,0-2.007,0.899-2.007,2.007s0.899,2.007,2.007,2.007
			c1.108,0,2.007-0.899,2.007-2.007S402.087,225.449,400.979,225.449z"/>
		<path style="fill:#DFE6C8;" d="M412.538,225.449c-1.108,0-2.007,0.899-2.007,2.007s0.899,2.007,2.007,2.007
			c1.108,0,2.007-0.899,2.007-2.007S413.646,225.449,412.538,225.449z"/>
		<path style="fill:#DFE6C8;" d="M424.097,225.449c-1.108,0-2.007,0.899-2.007,2.007s0.898,2.007,2.007,2.007
			c1.109,0,2.007-0.899,2.007-2.007S425.206,225.449,424.097,225.449z"/>
		<path style="fill:#DFE6C8;" d="M435.657,225.449c-1.109,0-2.007,0.899-2.007,2.007s0.898,2.007,2.007,2.007
			c1.108,0,2.007-0.899,2.007-2.007S436.765,225.449,435.657,225.449z"/>
		<path style="fill:#DFE6C8;" d="M447.216,225.449c-1.108,0-2.007,0.899-2.007,2.007s0.899,2.007,2.007,2.007
			s2.007-0.899,2.007-2.007S448.325,225.449,447.216,225.449z"/>
		<path style="fill:#DFE6C8;" d="M406.601,234.137c-1.108,0-2.007,0.898-2.007,2.007c0,1.108,0.899,2.007,2.007,2.007
			c1.108,0,2.007-0.899,2.007-2.007C408.607,235.036,407.709,234.137,406.601,234.137z"/>
		<path style="fill:#DFE6C8;" d="M418.16,234.137c-1.108,0-2.007,0.898-2.007,2.007c0,1.108,0.898,2.007,2.007,2.007
			c1.108,0,2.007-0.899,2.007-2.007C420.167,235.036,419.269,234.137,418.16,234.137z"/>
		<path style="fill:#DFE6C8;" d="M429.719,234.137c-1.108,0-2.007,0.898-2.007,2.007c0,1.108,0.899,2.007,2.007,2.007
			c1.108,0,2.007-0.899,2.007-2.007C431.726,235.036,430.828,234.137,429.719,234.137z"/>
		<path style="fill:#DFE6C8;" d="M441.279,234.137c-1.108,0-2.007,0.898-2.007,2.007c0,1.108,0.899,2.007,2.007,2.007
			c1.108,0,2.007-0.899,2.007-2.007C443.286,235.036,442.387,234.137,441.279,234.137z"/>
		<path style="fill:#DFE6C8;" d="M452.838,234.137c-1.108,0-2.007,0.898-2.007,2.007c0,1.108,0.898,2.007,2.007,2.007
			c1.108,0,2.007-0.899,2.007-2.007C454.845,235.036,453.947,234.137,452.838,234.137z"/>
		<path style="fill:#DFE6C8;" d="M400.979,243.849c-1.108,0-2.007,0.898-2.007,2.007c0,1.107,0.899,2.006,2.007,2.006
			c1.108,0,2.007-0.899,2.007-2.006C402.986,244.747,402.087,243.849,400.979,243.849z"/>
		<path style="fill:#DFE6C8;" d="M412.538,243.849c-1.108,0-2.007,0.898-2.007,2.007c0,1.107,0.899,2.006,2.007,2.006
			c1.108,0,2.007-0.899,2.007-2.006C414.545,244.747,413.646,243.849,412.538,243.849z"/>
		<path style="fill:#DFE6C8;" d="M424.097,243.849c-1.108,0-2.007,0.898-2.007,2.007c0,1.107,0.898,2.006,2.007,2.006
			c1.109,0,2.007-0.899,2.007-2.006C426.104,244.747,425.206,243.849,424.097,243.849z"/>
		<path style="fill:#DFE6C8;" d="M435.657,243.849c-1.109,0-2.007,0.898-2.007,2.007c0,1.107,0.898,2.006,2.007,2.006
			c1.108,0,2.007-0.899,2.007-2.006C437.664,244.747,436.765,243.849,435.657,243.849z"/>
		<path style="fill:#DFE6C8;" d="M447.216,243.849c-1.108,0-2.007,0.898-2.007,2.007c0,1.107,0.899,2.006,2.007,2.006
			s2.007-0.899,2.007-2.006C449.223,244.747,448.325,243.849,447.216,243.849z"/>
		<path style="fill:#DFE6C8;" d="M406.601,252.537c-1.108,0-2.007,0.899-2.007,2.007c0,1.109,0.899,2.006,2.007,2.006
			c1.108,0,2.007-0.897,2.007-2.006C408.607,253.436,407.709,252.537,406.601,252.537z"/>
		<path style="fill:#DFE6C8;" d="M418.16,252.537c-1.108,0-2.007,0.899-2.007,2.007c0,1.109,0.898,2.006,2.007,2.006
			c1.108,0,2.007-0.897,2.007-2.006C420.167,253.436,419.269,252.537,418.16,252.537z"/>
		<path style="fill:#DFE6C8;" d="M429.719,252.537c-1.108,0-2.007,0.899-2.007,2.007c0,1.109,0.899,2.006,2.007,2.006
			c1.108,0,2.007-0.897,2.007-2.006C431.726,253.436,430.828,252.537,429.719,252.537z"/>
		<path style="fill:#DFE6C8;" d="M441.279,252.537c-1.108,0-2.007,0.899-2.007,2.007c0,1.109,0.899,2.006,2.007,2.006
			c1.108,0,2.007-0.897,2.007-2.006C443.286,253.436,442.387,252.537,441.279,252.537z"/>
		<path style="fill:#DFE6C8;" d="M452.838,252.537c-1.108,0-2.007,0.899-2.007,2.007c0,1.109,0.898,2.006,2.007,2.006
			c1.108,0,2.007-0.897,2.007-2.006C454.845,253.436,453.947,252.537,452.838,252.537z"/>
	</g>
	<g>
		<path style="fill:#DFE6C8;" d="M141.567,195.801c-1.108,0-2.007,0.899-2.007,2.007c0,1.107,0.898,2.006,2.007,2.006
			c1.108,0,2.007-0.899,2.007-2.006C143.574,196.7,142.675,195.801,141.567,195.801z"/>
		<path style="fill:#DFE6C8;" d="M153.127,195.801c-1.108,0-2.007,0.899-2.007,2.007c0,1.107,0.899,2.006,2.007,2.006
			c1.108,0,2.007-0.899,2.007-2.006C155.133,196.7,154.235,195.801,153.127,195.801z"/>
		<path style="fill:#DFE6C8;" d="M164.686,195.801c-1.108,0-2.007,0.899-2.007,2.007c0,1.107,0.898,2.006,2.007,2.006
			c1.109,0,2.007-0.899,2.007-2.006C166.693,196.7,165.794,195.801,164.686,195.801z"/>
		<path style="fill:#DFE6C8;" d="M176.245,195.801c-1.108,0-2.006,0.899-2.006,2.007c0,1.107,0.898,2.006,2.006,2.006
			s2.007-0.899,2.007-2.006C178.252,196.7,177.353,195.801,176.245,195.801z"/>
		<path style="fill:#DFE6C8;" d="M187.804,195.801c-1.109,0-2.007,0.899-2.007,2.007c0,1.107,0.899,2.006,2.007,2.006
			c1.108,0,2.007-0.899,2.007-2.006C189.811,196.7,188.913,195.801,187.804,195.801z"/>
		<path style="fill:#DFE6C8;" d="M147.189,204.49c-1.108,0-2.007,0.898-2.007,2.006c0,1.109,0.899,2.007,2.007,2.007
			c1.109,0,2.007-0.899,2.007-2.007C149.195,205.388,148.298,204.49,147.189,204.49z"/>
		<path style="fill:#DFE6C8;" d="M158.749,204.49c-1.109,0-2.007,0.898-2.007,2.006c0,1.109,0.899,2.007,2.007,2.007
			c1.108,0,2.007-0.899,2.007-2.007C160.755,205.388,159.857,204.49,158.749,204.49z"/>
		<path style="fill:#DFE6C8;" d="M170.307,204.49c-1.108,0-2.006,0.898-2.006,2.006c0,1.109,0.898,2.007,2.006,2.007
			c1.108,0,2.007-0.899,2.007-2.007C172.314,205.388,171.416,204.49,170.307,204.49z"/>
		<path style="fill:#DFE6C8;" d="M181.867,204.49c-1.108,0-2.007,0.898-2.007,2.006c0,1.109,0.899,2.007,2.007,2.007
			c1.108,0,2.007-0.899,2.007-2.007C183.874,205.388,182.975,204.49,181.867,204.49z"/>
		<path style="fill:#DFE6C8;" d="M193.426,204.49c-1.108,0-2.007,0.898-2.007,2.006c0,1.109,0.898,2.007,2.007,2.007
			c1.108,0,2.007-0.899,2.007-2.007C195.433,205.388,194.535,204.49,193.426,204.49z"/>
		<path style="fill:#DFE6C8;" d="M141.567,214.2c-1.108,0-2.007,0.899-2.007,2.007c0,1.109,0.898,2.007,2.007,2.007
			c1.108,0,2.007-0.899,2.007-2.007C143.574,215.098,142.675,214.2,141.567,214.2z"/>
		<path style="fill:#DFE6C8;" d="M153.127,214.2c-1.108,0-2.007,0.899-2.007,2.007c0,1.109,0.899,2.007,2.007,2.007
			c1.108,0,2.007-0.899,2.007-2.007C155.133,215.098,154.235,214.2,153.127,214.2z"/>
		<path style="fill:#DFE6C8;" d="M164.686,214.2c-1.108,0-2.007,0.899-2.007,2.007c0,1.109,0.898,2.007,2.007,2.007
			c1.109,0,2.007-0.899,2.007-2.007C166.693,215.098,165.794,214.2,164.686,214.2z"/>
		<path style="fill:#DFE6C8;" d="M176.245,214.2c-1.108,0-2.006,0.899-2.006,2.007c0,1.109,0.898,2.007,2.006,2.007
			s2.007-0.899,2.007-2.007C178.252,215.098,177.353,214.2,176.245,214.2z"/>
		<path style="fill:#DFE6C8;" d="M187.804,214.2c-1.109,0-2.007,0.899-2.007,2.007c0,1.109,0.899,2.007,2.007,2.007
			c1.108,0,2.007-0.899,2.007-2.007C189.811,215.098,188.913,214.2,187.804,214.2z"/>
		<path style="fill:#DFE6C8;" d="M147.189,222.888c-1.108,0-2.007,0.899-2.007,2.007c0,1.108,0.899,2.007,2.007,2.007
			c1.109,0,2.007-0.899,2.007-2.007C149.195,223.787,148.298,222.888,147.189,222.888z"/>
		<path style="fill:#DFE6C8;" d="M158.749,222.888c-1.109,0-2.007,0.899-2.007,2.007c0,1.108,0.899,2.007,2.007,2.007
			c1.108,0,2.007-0.899,2.007-2.007C160.755,223.787,159.857,222.888,158.749,222.888z"/>
		<path style="fill:#DFE6C8;" d="M170.307,222.888c-1.108,0-2.006,0.899-2.006,2.007c0,1.108,0.898,2.007,2.006,2.007
			c1.108,0,2.007-0.899,2.007-2.007C172.314,223.787,171.416,222.888,170.307,222.888z"/>
		<path style="fill:#DFE6C8;" d="M181.867,222.888c-1.108,0-2.007,0.899-2.007,2.007c0,1.108,0.899,2.007,2.007,2.007
			c1.108,0,2.007-0.899,2.007-2.007C183.874,223.787,182.975,222.888,181.867,222.888z"/>
		<path style="fill:#DFE6C8;" d="M193.426,222.888c-1.108,0-2.007,0.899-2.007,2.007c0,1.108,0.898,2.007,2.007,2.007
			c1.108,0,2.007-0.899,2.007-2.007C195.433,223.787,194.535,222.888,193.426,222.888z"/>
		<path style="fill:#DFE6C8;" d="M141.567,232.599c-1.108,0-2.007,0.899-2.007,2.007c0,1.107,0.898,2.006,2.007,2.006
			c1.108,0,2.007-0.899,2.007-2.006C143.574,233.498,142.675,232.599,141.567,232.599z"/>
		<path style="fill:#DFE6C8;" d="M153.127,232.599c-1.108,0-2.007,0.899-2.007,2.007c0,1.107,0.899,2.006,2.007,2.006
			c1.108,0,2.007-0.899,2.007-2.006C155.133,233.498,154.235,232.599,153.127,232.599z"/>
		<path style="fill:#DFE6C8;" d="M164.686,232.599c-1.108,0-2.007,0.899-2.007,2.007c0,1.107,0.898,2.006,2.007,2.006
			c1.109,0,2.007-0.899,2.007-2.006C166.693,233.498,165.794,232.599,164.686,232.599z"/>
		<path style="fill:#DFE6C8;" d="M176.245,232.599c-1.108,0-2.006,0.899-2.006,2.007c0,1.107,0.898,2.006,2.006,2.006
			s2.007-0.899,2.007-2.006C178.252,233.498,177.353,232.599,176.245,232.599z"/>
		<path style="fill:#DFE6C8;" d="M187.804,232.599c-1.109,0-2.007,0.899-2.007,2.007c0,1.107,0.899,2.006,2.007,2.006
			c1.108,0,2.007-0.899,2.007-2.006C189.811,233.498,188.913,232.599,187.804,232.599z"/>
		<path style="fill:#DFE6C8;" d="M147.189,241.288c-1.108,0-2.007,0.899-2.007,2.007c0,1.109,0.899,2.006,2.007,2.006
			c1.109,0,2.007-0.897,2.007-2.006C149.195,242.186,148.298,241.288,147.189,241.288z"/>
		<path style="fill:#DFE6C8;" d="M158.749,241.288c-1.109,0-2.007,0.899-2.007,2.007c0,1.109,0.899,2.006,2.007,2.006
			c1.108,0,2.007-0.897,2.007-2.006C160.755,242.186,159.857,241.288,158.749,241.288z"/>
		<path style="fill:#DFE6C8;" d="M170.307,241.288c-1.108,0-2.006,0.899-2.006,2.007c0,1.109,0.898,2.006,2.006,2.006
			c1.108,0,2.007-0.897,2.007-2.006C172.314,242.186,171.416,241.288,170.307,241.288z"/>
		<path style="fill:#DFE6C8;" d="M181.867,241.288c-1.108,0-2.007,0.899-2.007,2.007c0,1.109,0.899,2.006,2.007,2.006
			c1.108,0,2.007-0.897,2.007-2.006C183.874,242.186,182.975,241.288,181.867,241.288z"/>
		<path style="fill:#DFE6C8;" d="M193.426,241.288c-1.108,0-2.007,0.899-2.007,2.007c0,1.109,0.898,2.006,2.007,2.006
			c1.108,0,2.007-0.897,2.007-2.006C195.433,242.186,194.535,241.288,193.426,241.288z"/>
	</g>
	<g>
		<path style="fill:#DFE6C8;" d="M603.841,203.354c-1.108,0-2.007,0.898-2.007,2.007c0,1.107,0.899,2.006,2.007,2.006
			c1.108,0,2.006-0.899,2.006-2.006C605.848,204.252,604.949,203.354,603.841,203.354z"/>
		<path style="fill:#DFE6C8;" d="M615.401,203.354c-1.108,0-2.007,0.898-2.007,2.007c0,1.107,0.899,2.006,2.007,2.006
			c1.108,0,2.006-0.899,2.006-2.006C617.407,204.252,616.509,203.354,615.401,203.354z"/>
		<path style="fill:#DFE6C8;" d="M626.959,203.354c-1.108,0-2.006,0.898-2.006,2.007c0,1.107,0.898,2.006,2.006,2.006
			c1.109,0,2.007-0.899,2.007-2.006C628.967,204.252,628.068,203.354,626.959,203.354z"/>
		<path style="fill:#DFE6C8;" d="M638.519,203.354c-1.109,0-2.006,0.898-2.006,2.007c0,1.107,0.898,2.006,2.006,2.006
			c1.108,0,2.007-0.899,2.007-2.006C640.526,204.252,639.627,203.354,638.519,203.354z"/>
		<path style="fill:#DFE6C8;" d="M650.078,203.354c-1.108,0-2.007,0.898-2.007,2.007c0,1.107,0.898,2.006,2.007,2.006
			c1.108,0,2.007-0.899,2.007-2.006C652.086,204.252,651.187,203.354,650.078,203.354z"/>
		<path style="fill:#DFE6C8;" d="M609.463,212.042c-1.108,0-2.007,0.899-2.007,2.006c0,1.108,0.899,2.007,2.007,2.007
			c1.109,0,2.007-0.899,2.007-2.007C611.47,212.941,610.572,212.042,609.463,212.042z"/>
		<path style="fill:#DFE6C8;" d="M621.022,212.042c-1.108,0-2.007,0.899-2.007,2.006c0,1.108,0.898,2.007,2.007,2.007
			c1.108,0,2.007-0.899,2.007-2.007C623.029,212.941,622.131,212.042,621.022,212.042z"/>
		<path style="fill:#DFE6C8;" d="M632.581,212.042c-1.108,0-2.006,0.899-2.006,2.006c0,1.108,0.899,2.007,2.006,2.007
			c1.108,0,2.007-0.899,2.007-2.007C634.588,212.941,633.69,212.042,632.581,212.042z"/>
		<path style="fill:#DFE6C8;" d="M644.141,212.042c-1.108,0-2.007,0.899-2.007,2.006c0,1.108,0.899,2.007,2.007,2.007
			c1.108,0,2.006-0.899,2.006-2.007C646.148,212.941,645.249,212.042,644.141,212.042z"/>
		<path style="fill:#DFE6C8;" d="M655.7,212.042c-1.108,0-2.006,0.899-2.006,2.006c0,1.108,0.898,2.007,2.006,2.007
			c1.109,0,2.007-0.899,2.007-2.007C657.707,212.941,656.809,212.042,655.7,212.042z"/>
		<path style="fill:#DFE6C8;" d="M603.841,221.752c-1.108,0-2.007,0.899-2.007,2.007c0,1.109,0.899,2.007,2.007,2.007
			c1.108,0,2.006-0.899,2.006-2.007C605.848,222.651,604.949,221.752,603.841,221.752z"/>
		<path style="fill:#DFE6C8;" d="M615.401,221.752c-1.108,0-2.007,0.899-2.007,2.007c0,1.109,0.899,2.007,2.007,2.007
			c1.108,0,2.006-0.899,2.006-2.007C617.407,222.651,616.509,221.752,615.401,221.752z"/>
		<path style="fill:#DFE6C8;" d="M626.959,221.752c-1.108,0-2.006,0.899-2.006,2.007c0,1.109,0.898,2.007,2.006,2.007
			c1.109,0,2.007-0.899,2.007-2.007C628.967,222.651,628.068,221.752,626.959,221.752z"/>
		<path style="fill:#DFE6C8;" d="M638.519,221.752c-1.109,0-2.006,0.899-2.006,2.007c0,1.109,0.898,2.007,2.006,2.007
			c1.108,0,2.007-0.899,2.007-2.007C640.526,222.651,639.627,221.752,638.519,221.752z"/>
		<path style="fill:#DFE6C8;" d="M650.078,221.752c-1.108,0-2.007,0.899-2.007,2.007c0,1.109,0.898,2.007,2.007,2.007
			c1.108,0,2.007-0.899,2.007-2.007C652.086,222.651,651.187,221.752,650.078,221.752z"/>
		<path style="fill:#DFE6C8;" d="M609.463,230.441c-1.108,0-2.007,0.899-2.007,2.007c0,1.108,0.899,2.007,2.007,2.007
			c1.109,0,2.007-0.898,2.007-2.007C611.47,231.339,610.572,230.441,609.463,230.441z"/>
		<path style="fill:#DFE6C8;" d="M621.022,230.441c-1.108,0-2.007,0.899-2.007,2.007c0,1.108,0.898,2.007,2.007,2.007
			c1.108,0,2.007-0.898,2.007-2.007C623.029,231.339,622.131,230.441,621.022,230.441z"/>
		<path style="fill:#DFE6C8;" d="M632.581,230.441c-1.108,0-2.006,0.899-2.006,2.007c0,1.108,0.899,2.007,2.006,2.007
			c1.108,0,2.007-0.898,2.007-2.007C634.588,231.339,633.69,230.441,632.581,230.441z"/>
		<path style="fill:#DFE6C8;" d="M644.141,230.441c-1.108,0-2.007,0.899-2.007,2.007c0,1.108,0.899,2.007,2.007,2.007
			c1.108,0,2.006-0.898,2.006-2.007C646.148,231.339,645.249,230.441,644.141,230.441z"/>
		<path style="fill:#DFE6C8;" d="M655.7,230.441c-1.108,0-2.006,0.899-2.006,2.007c0,1.108,0.898,2.007,2.006,2.007
			c1.109,0,2.007-0.898,2.007-2.007C657.707,231.339,656.809,230.441,655.7,230.441z"/>
		<path style="fill:#DFE6C8;" d="M603.841,240.152c-1.108,0-2.007,0.899-2.007,2.007c0,1.107,0.899,2.006,2.007,2.006
			c1.108,0,2.006-0.899,2.006-2.006C605.848,241.05,604.949,240.152,603.841,240.152z"/>
		<path style="fill:#DFE6C8;" d="M615.401,240.152c-1.108,0-2.007,0.899-2.007,2.007c0,1.107,0.899,2.006,2.007,2.006
			c1.108,0,2.006-0.899,2.006-2.006C617.407,241.05,616.509,240.152,615.401,240.152z"/>
		<path style="fill:#DFE6C8;" d="M626.959,240.152c-1.108,0-2.006,0.899-2.006,2.007c0,1.107,0.898,2.006,2.006,2.006
			c1.109,0,2.007-0.899,2.007-2.006C628.967,241.05,628.068,240.152,626.959,240.152z"/>
		<path style="fill:#DFE6C8;" d="M638.519,240.152c-1.109,0-2.006,0.899-2.006,2.007c0,1.107,0.898,2.006,2.006,2.006
			c1.108,0,2.007-0.899,2.007-2.006C640.526,241.05,639.627,240.152,638.519,240.152z"/>
		<path style="fill:#DFE6C8;" d="M650.078,240.152c-1.108,0-2.007,0.899-2.007,2.007c0,1.107,0.898,2.006,2.007,2.006
			c1.108,0,2.007-0.899,2.007-2.006C652.086,241.05,651.187,240.152,650.078,240.152z"/>
		<path style="fill:#DFE6C8;" d="M609.463,248.84c-1.108,0-2.007,0.898-2.007,2.007s0.899,2.006,2.007,2.006
			c1.109,0,2.007-0.897,2.007-2.006S610.572,248.84,609.463,248.84z"/>
		<path style="fill:#DFE6C8;" d="M621.022,248.84c-1.108,0-2.007,0.898-2.007,2.007s0.898,2.006,2.007,2.006
			c1.108,0,2.007-0.897,2.007-2.006S622.131,248.84,621.022,248.84z"/>
		<path style="fill:#DFE6C8;" d="M632.581,248.84c-1.108,0-2.006,0.898-2.006,2.007s0.899,2.006,2.006,2.006
			c1.108,0,2.007-0.897,2.007-2.006S633.69,248.84,632.581,248.84z"/>
		<path style="fill:#DFE6C8;" d="M644.141,248.84c-1.108,0-2.007,0.898-2.007,2.007s0.899,2.006,2.007,2.006
			c1.108,0,2.006-0.897,2.006-2.006S645.249,248.84,644.141,248.84z"/>
		<path style="fill:#DFE6C8;" d="M655.7,248.84c-1.108,0-2.006,0.898-2.006,2.007s0.898,2.006,2.006,2.006
			c1.109,0,2.007-0.897,2.007-2.006S656.809,248.84,655.7,248.84z"/>
	</g>
	<g>
		<path style="fill:#DFE6C8;" d="M289.679,341.435c-1.108,0-2.007,0.898-2.007,2.007c0,1.107,0.899,2.006,2.007,2.006
			c1.108,0,2.007-0.899,2.007-2.006C291.686,342.333,290.787,341.435,289.679,341.435z"/>
		<path style="fill:#DFE6C8;" d="M301.238,341.435c-1.108,0-2.007,0.898-2.007,2.007c0,1.107,0.899,2.006,2.007,2.006
			c1.108,0,2.007-0.899,2.007-2.006C303.245,342.333,302.346,341.435,301.238,341.435z"/>
		<path style="fill:#DFE6C8;" d="M312.797,341.435c-1.108,0-2.007,0.898-2.007,2.007c0,1.107,0.898,2.006,2.007,2.006
			c1.108,0,2.007-0.899,2.007-2.006C314.805,342.333,313.906,341.435,312.797,341.435z"/>
		<path style="fill:#DFE6C8;" d="M324.357,341.435c-1.109,0-2.007,0.898-2.007,2.007c0,1.107,0.898,2.006,2.007,2.006
			c1.108,0,2.007-0.899,2.007-2.006C326.364,342.333,325.465,341.435,324.357,341.435z"/>
		<path style="fill:#DFE6C8;" d="M335.916,341.435c-1.108,0-2.007,0.898-2.007,2.007c0,1.107,0.899,2.006,2.007,2.006
			c1.108,0,2.007-0.899,2.007-2.006C337.923,342.333,337.025,341.435,335.916,341.435z"/>
		<path style="fill:#DFE6C8;" d="M295.301,350.123c-1.108,0-2.007,0.899-2.007,2.006c0,1.108,0.899,2.007,2.007,2.007
			c1.108,0,2.007-0.899,2.007-2.007C297.307,351.022,296.409,350.123,295.301,350.123z"/>
		<path style="fill:#DFE6C8;" d="M306.86,350.123c-1.108,0-2.007,0.899-2.007,2.006c0,1.108,0.899,2.007,2.007,2.007
			c1.108,0,2.007-0.899,2.007-2.007C308.867,351.022,307.969,350.123,306.86,350.123z"/>
		<path style="fill:#DFE6C8;" d="M318.419,350.123c-1.108,0-2.007,0.899-2.007,2.006c0,1.108,0.898,2.007,2.007,2.007
			c1.108,0,2.007-0.899,2.007-2.007C320.426,351.022,319.528,350.123,318.419,350.123z"/>
		<path style="fill:#DFE6C8;" d="M329.979,350.123c-1.108,0-2.007,0.899-2.007,2.006c0,1.108,0.899,2.007,2.007,2.007
			c1.108,0,2.007-0.899,2.007-2.007C331.986,351.022,331.087,350.123,329.979,350.123z"/>
		<path style="fill:#DFE6C8;" d="M341.538,350.123c-1.108,0-2.007,0.899-2.007,2.006c0,1.108,0.898,2.007,2.007,2.007
			c1.108,0,2.007-0.899,2.007-2.007C343.545,351.022,342.646,350.123,341.538,350.123z"/>
		<path style="fill:#DFE6C8;" d="M289.679,359.833c-1.108,0-2.007,0.899-2.007,2.007c0,1.108,0.899,2.007,2.007,2.007
			c1.108,0,2.007-0.899,2.007-2.007C291.686,360.732,290.787,359.833,289.679,359.833z"/>
		<path style="fill:#DFE6C8;" d="M301.238,359.833c-1.108,0-2.007,0.899-2.007,2.007c0,1.108,0.899,2.007,2.007,2.007
			c1.108,0,2.007-0.899,2.007-2.007C303.245,360.732,302.346,359.833,301.238,359.833z"/>
		<path style="fill:#DFE6C8;" d="M312.797,359.833c-1.108,0-2.007,0.899-2.007,2.007c0,1.108,0.898,2.007,2.007,2.007
			c1.108,0,2.007-0.899,2.007-2.007C314.805,360.732,313.906,359.833,312.797,359.833z"/>
		<path style="fill:#DFE6C8;" d="M324.357,359.833c-1.109,0-2.007,0.899-2.007,2.007c0,1.108,0.898,2.007,2.007,2.007
			c1.108,0,2.007-0.899,2.007-2.007C326.364,360.732,325.465,359.833,324.357,359.833z"/>
		<path style="fill:#DFE6C8;" d="M335.916,359.833c-1.108,0-2.007,0.899-2.007,2.007c0,1.108,0.899,2.007,2.007,2.007
			c1.108,0,2.007-0.899,2.007-2.007C337.923,360.732,337.025,359.833,335.916,359.833z"/>
		<path style="fill:#DFE6C8;" d="M295.301,368.521c-1.108,0-2.007,0.899-2.007,2.007c0,1.108,0.899,2.007,2.007,2.007
			c1.108,0,2.007-0.898,2.007-2.007C297.307,369.42,296.409,368.521,295.301,368.521z"/>
		<path style="fill:#DFE6C8;" d="M306.86,368.521c-1.108,0-2.007,0.899-2.007,2.007c0,1.108,0.899,2.007,2.007,2.007
			c1.108,0,2.007-0.898,2.007-2.007C308.867,369.42,307.969,368.521,306.86,368.521z"/>
		<path style="fill:#DFE6C8;" d="M318.419,368.521c-1.108,0-2.007,0.899-2.007,2.007c0,1.108,0.898,2.007,2.007,2.007
			c1.108,0,2.007-0.898,2.007-2.007C320.426,369.42,319.528,368.521,318.419,368.521z"/>
		<path style="fill:#DFE6C8;" d="M329.979,368.521c-1.108,0-2.007,0.899-2.007,2.007c0,1.108,0.899,2.007,2.007,2.007
			c1.108,0,2.007-0.898,2.007-2.007C331.986,369.42,331.087,368.521,329.979,368.521z"/>
		<path style="fill:#DFE6C8;" d="M341.538,368.521c-1.108,0-2.007,0.899-2.007,2.007c0,1.108,0.898,2.007,2.007,2.007
			c1.108,0,2.007-0.898,2.007-2.007C343.545,369.42,342.646,368.521,341.538,368.521z"/>
		<path style="fill:#DFE6C8;" d="M289.679,378.232c-1.108,0-2.007,0.899-2.007,2.007c0,1.107,0.899,2.006,2.007,2.006
			c1.108,0,2.007-0.899,2.007-2.006C291.686,379.131,290.787,378.232,289.679,378.232z"/>
		<path style="fill:#DFE6C8;" d="M301.238,378.232c-1.108,0-2.007,0.899-2.007,2.007c0,1.107,0.899,2.006,2.007,2.006
			c1.108,0,2.007-0.899,2.007-2.006C303.245,379.131,302.346,378.232,301.238,378.232z"/>
		<path style="fill:#DFE6C8;" d="M312.797,378.232c-1.108,0-2.007,0.899-2.007,2.007c0,1.107,0.898,2.006,2.007,2.006
			c1.108,0,2.007-0.899,2.007-2.006C314.805,379.131,313.906,378.232,312.797,378.232z"/>
		<path style="fill:#DFE6C8;" d="M324.357,378.232c-1.109,0-2.007,0.899-2.007,2.007c0,1.107,0.898,2.006,2.007,2.006
			c1.108,0,2.007-0.899,2.007-2.006C326.364,379.131,325.465,378.232,324.357,378.232z"/>
		<path style="fill:#DFE6C8;" d="M335.916,378.232c-1.108,0-2.007,0.899-2.007,2.007c0,1.107,0.899,2.006,2.007,2.006
			c1.108,0,2.007-0.899,2.007-2.006C337.923,379.131,337.025,378.232,335.916,378.232z"/>
		<path style="fill:#DFE6C8;" d="M295.301,386.921c-1.108,0-2.007,0.898-2.007,2.007s0.899,2.006,2.007,2.006
			c1.108,0,2.007-0.898,2.007-2.006S296.409,386.921,295.301,386.921z"/>
		<path style="fill:#DFE6C8;" d="M306.86,386.921c-1.108,0-2.007,0.898-2.007,2.007s0.899,2.006,2.007,2.006
			c1.108,0,2.007-0.898,2.007-2.006S307.969,386.921,306.86,386.921z"/>
		<path style="fill:#DFE6C8;" d="M318.419,386.921c-1.108,0-2.007,0.898-2.007,2.007s0.898,2.006,2.007,2.006
			c1.108,0,2.007-0.898,2.007-2.006S319.528,386.921,318.419,386.921z"/>
		<path style="fill:#DFE6C8;" d="M329.979,386.921c-1.108,0-2.007,0.898-2.007,2.007s0.899,2.006,2.007,2.006
			c1.108,0,2.007-0.898,2.007-2.006S331.087,386.921,329.979,386.921z"/>
		<path style="fill:#DFE6C8;" d="M341.538,386.921c-1.108,0-2.007,0.898-2.007,2.007s0.898,2.006,2.007,2.006
			c1.108,0,2.007-0.898,2.007-2.006S342.646,386.921,341.538,386.921z"/>
	</g>
	<g>
		<path style="fill:#DFE6C8;" d="M53.387,313.951c-1.108,0-2.007,0.899-2.007,2.007c0,1.107,0.899,2.006,2.007,2.006
			c1.108,0,2.007-0.899,2.007-2.006C55.393,314.85,54.494,313.951,53.387,313.951z"/>
		<path style="fill:#DFE6C8;" d="M64.946,313.951c-1.108,0-2.007,0.899-2.007,2.007c0,1.107,0.899,2.006,2.007,2.006
			c1.108,0,2.007-0.899,2.007-2.006C66.952,314.85,66.054,313.951,64.946,313.951z"/>
		<path style="fill:#DFE6C8;" d="M76.505,313.951c-1.108,0-2.007,0.899-2.007,2.007c0,1.107,0.898,2.006,2.007,2.006
			c1.108,0,2.007-0.899,2.007-2.006C78.512,314.85,77.613,313.951,76.505,313.951z"/>
		<path style="fill:#DFE6C8;" d="M88.064,313.951c-1.108,0-2.006,0.899-2.006,2.007c0,1.107,0.898,2.006,2.006,2.006
			c1.108,0,2.007-0.899,2.007-2.006C90.071,314.85,89.173,313.951,88.064,313.951z"/>
		<path style="fill:#DFE6C8;" d="M99.624,313.951c-1.109,0-2.007,0.899-2.007,2.007c0,1.107,0.899,2.006,2.007,2.006
			c1.108,0,2.007-0.899,2.007-2.006C101.631,314.85,100.732,313.951,99.624,313.951z"/>
		<path style="fill:#DFE6C8;" d="M59.008,322.64c-1.108,0-2.007,0.899-2.007,2.006c0,1.108,0.899,2.007,2.007,2.007
			c1.109,0,2.007-0.898,2.007-2.007C61.015,323.538,60.117,322.64,59.008,322.64z"/>
		<path style="fill:#DFE6C8;" d="M70.568,322.64c-1.108,0-2.007,0.899-2.007,2.006c0,1.108,0.899,2.007,2.007,2.007
			c1.108,0,2.007-0.898,2.007-2.007C72.574,323.538,71.676,322.64,70.568,322.64z"/>
		<path style="fill:#DFE6C8;" d="M82.127,322.64c-1.108,0-2.007,0.899-2.007,2.006c0,1.108,0.899,2.007,2.007,2.007
			c1.108,0,2.007-0.898,2.007-2.007C84.134,323.538,83.235,322.64,82.127,322.64z"/>
		<path style="fill:#DFE6C8;" d="M93.687,322.64c-1.108,0-2.007,0.899-2.007,2.006c0,1.108,0.898,2.007,2.007,2.007
			c1.108,0,2.007-0.898,2.007-2.007C95.693,323.538,94.795,322.64,93.687,322.64z"/>
		<path style="fill:#DFE6C8;" d="M105.245,322.64c-1.108,0-2.007,0.899-2.007,2.006c0,1.108,0.898,2.007,2.007,2.007
			c1.108,0,2.007-0.898,2.007-2.007C107.253,323.538,106.354,322.64,105.245,322.64z"/>
		<path style="fill:#DFE6C8;" d="M53.387,332.35c-1.108,0-2.007,0.899-2.007,2.007c0,1.109,0.899,2.007,2.007,2.007
			c1.108,0,2.007-0.898,2.007-2.007C55.393,333.248,54.494,332.35,53.387,332.35z"/>
		<path style="fill:#DFE6C8;" d="M64.946,332.35c-1.108,0-2.007,0.899-2.007,2.007c0,1.109,0.899,2.007,2.007,2.007
			c1.108,0,2.007-0.898,2.007-2.007C66.952,333.248,66.054,332.35,64.946,332.35z"/>
		<path style="fill:#DFE6C8;" d="M76.505,332.35c-1.108,0-2.007,0.899-2.007,2.007c0,1.109,0.898,2.007,2.007,2.007
			c1.108,0,2.007-0.898,2.007-2.007C78.512,333.248,77.613,332.35,76.505,332.35z"/>
		<path style="fill:#DFE6C8;" d="M88.064,332.35c-1.108,0-2.006,0.899-2.006,2.007c0,1.109,0.898,2.007,2.006,2.007
			c1.108,0,2.007-0.898,2.007-2.007C90.071,333.248,89.173,332.35,88.064,332.35z"/>
		<path style="fill:#DFE6C8;" d="M99.624,332.35c-1.109,0-2.007,0.899-2.007,2.007c0,1.109,0.899,2.007,2.007,2.007
			c1.108,0,2.007-0.898,2.007-2.007C101.631,333.248,100.732,332.35,99.624,332.35z"/>
		<path style="fill:#DFE6C8;" d="M59.008,341.038c-1.108,0-2.007,0.899-2.007,2.007c0,1.108,0.899,2.007,2.007,2.007
			c1.109,0,2.007-0.899,2.007-2.007C61.015,341.937,60.117,341.038,59.008,341.038z"/>
		<path style="fill:#DFE6C8;" d="M70.568,341.038c-1.108,0-2.007,0.899-2.007,2.007c0,1.108,0.899,2.007,2.007,2.007
			c1.108,0,2.007-0.899,2.007-2.007C72.574,341.937,71.676,341.038,70.568,341.038z"/>
		<path style="fill:#DFE6C8;" d="M82.127,341.038c-1.108,0-2.007,0.899-2.007,2.007c0,1.108,0.899,2.007,2.007,2.007
			c1.108,0,2.007-0.899,2.007-2.007C84.134,341.937,83.235,341.038,82.127,341.038z"/>
		<path style="fill:#DFE6C8;" d="M93.687,341.038c-1.108,0-2.007,0.899-2.007,2.007c0,1.108,0.898,2.007,2.007,2.007
			c1.108,0,2.007-0.899,2.007-2.007C95.693,341.937,94.795,341.038,93.687,341.038z"/>
		<path style="fill:#DFE6C8;" d="M105.245,341.038c-1.108,0-2.007,0.899-2.007,2.007c0,1.108,0.898,2.007,2.007,2.007
			c1.108,0,2.007-0.899,2.007-2.007C107.253,341.937,106.354,341.038,105.245,341.038z"/>
		<path style="fill:#DFE6C8;" d="M53.387,350.749c-1.108,0-2.007,0.898-2.007,2.007c0,1.107,0.899,2.006,2.007,2.006
			c1.108,0,2.007-0.899,2.007-2.006C55.393,351.648,54.494,350.749,53.387,350.749z"/>
		<path style="fill:#DFE6C8;" d="M64.946,350.749c-1.108,0-2.007,0.898-2.007,2.007c0,1.107,0.899,2.006,2.007,2.006
			c1.108,0,2.007-0.899,2.007-2.006C66.952,351.648,66.054,350.749,64.946,350.749z"/>
		<path style="fill:#DFE6C8;" d="M76.505,350.749c-1.108,0-2.007,0.898-2.007,2.007c0,1.107,0.898,2.006,2.007,2.006
			c1.108,0,2.007-0.899,2.007-2.006C78.512,351.648,77.613,350.749,76.505,350.749z"/>
		<path style="fill:#DFE6C8;" d="M88.064,350.749c-1.108,0-2.006,0.898-2.006,2.007c0,1.107,0.898,2.006,2.006,2.006
			c1.108,0,2.007-0.899,2.007-2.006C90.071,351.648,89.173,350.749,88.064,350.749z"/>
		<path style="fill:#DFE6C8;" d="M99.624,350.749c-1.109,0-2.007,0.898-2.007,2.007c0,1.107,0.899,2.006,2.007,2.006
			c1.108,0,2.007-0.899,2.007-2.006C101.631,351.648,100.732,350.749,99.624,350.749z"/>
		<path style="fill:#DFE6C8;" d="M59.008,359.438c-1.108,0-2.007,0.899-2.007,2.007c0,1.108,0.899,2.006,2.007,2.006
			c1.109,0,2.007-0.897,2.007-2.006C61.015,360.336,60.117,359.438,59.008,359.438z"/>
		<path style="fill:#DFE6C8;" d="M70.568,359.438c-1.108,0-2.007,0.899-2.007,2.007c0,1.108,0.899,2.006,2.007,2.006
			c1.108,0,2.007-0.897,2.007-2.006C72.574,360.336,71.676,359.438,70.568,359.438z"/>
		<path style="fill:#DFE6C8;" d="M82.127,359.438c-1.108,0-2.007,0.899-2.007,2.007c0,1.108,0.899,2.006,2.007,2.006
			c1.108,0,2.007-0.897,2.007-2.006C84.134,360.336,83.235,359.438,82.127,359.438z"/>
		<path style="fill:#DFE6C8;" d="M93.687,359.438c-1.108,0-2.007,0.899-2.007,2.007c0,1.108,0.898,2.006,2.007,2.006
			c1.108,0,2.007-0.897,2.007-2.006C95.693,360.336,94.795,359.438,93.687,359.438z"/>
		<path style="fill:#DFE6C8;" d="M105.245,359.438c-1.108,0-2.007,0.899-2.007,2.007c0,1.108,0.898,2.006,2.007,2.006
			c1.108,0,2.007-0.897,2.007-2.006C107.253,360.336,106.354,359.438,105.245,359.438z"/>
	</g>
	<g>
		<path style="fill:#DFE6C8;" d="M27.432,33.454c-1.108,0-2.007,0.899-2.007,2.007c0,1.107,0.899,2.006,2.007,2.006
			c1.108,0,2.007-0.899,2.007-2.006C29.438,34.352,28.54,33.454,27.432,33.454z"/>
		<path style="fill:#DFE6C8;" d="M38.991,33.454c-1.108,0-2.007,0.899-2.007,2.007c0,1.107,0.899,2.006,2.007,2.006
			c1.108,0,2.007-0.899,2.007-2.006C40.998,34.352,40.099,33.454,38.991,33.454z"/>
		<path style="fill:#DFE6C8;" d="M50.55,33.454c-1.108,0-2.007,0.899-2.007,2.007c0,1.107,0.898,2.006,2.007,2.006
			c1.109,0,2.007-0.899,2.007-2.006C52.557,34.352,51.659,33.454,50.55,33.454z"/>
		<path style="fill:#DFE6C8;" d="M62.109,33.454c-1.109,0-2.007,0.899-2.007,2.007c0,1.107,0.898,2.006,2.007,2.006
			c1.108,0,2.007-0.899,2.007-2.006C64.117,34.352,63.218,33.454,62.109,33.454z"/>
		<path style="fill:#DFE6C8;" d="M73.669,33.454c-1.108,0-2.007,0.899-2.007,2.007c0,1.107,0.899,2.006,2.007,2.006
			c1.108,0,2.007-0.899,2.007-2.006C75.676,34.352,74.777,33.454,73.669,33.454z"/>
		<path style="fill:#DFE6C8;" d="M33.054,42.142c-1.108,0-2.007,0.899-2.007,2.006c0,1.108,0.899,2.007,2.007,2.007
			c1.108,0,2.007-0.899,2.007-2.007C35.06,43.041,34.162,42.142,33.054,42.142z"/>
		<path style="fill:#DFE6C8;" d="M44.613,42.142c-1.109,0-2.007,0.899-2.007,2.006c0,1.108,0.898,2.007,2.007,2.007
			c1.108,0,2.007-0.899,2.007-2.007C46.619,43.041,45.721,42.142,44.613,42.142z"/>
		<path style="fill:#DFE6C8;" d="M56.172,42.142c-1.108,0-2.007,0.899-2.007,2.006c0,1.108,0.899,2.007,2.007,2.007
			c1.108,0,2.007-0.899,2.007-2.007C58.179,43.041,57.28,42.142,56.172,42.142z"/>
		<path style="fill:#DFE6C8;" d="M67.732,42.142c-1.108,0-2.007,0.899-2.007,2.006c0,1.108,0.899,2.007,2.007,2.007
			c1.108,0,2.007-0.899,2.007-2.007C69.738,43.041,68.84,42.142,67.732,42.142z"/>
		<path style="fill:#DFE6C8;" d="M79.291,42.142c-1.108,0-2.007,0.899-2.007,2.006c0,1.108,0.898,2.007,2.007,2.007
			c1.108,0,2.007-0.899,2.007-2.007C81.298,43.041,80.399,42.142,79.291,42.142z"/>
		<path style="fill:#DFE6C8;" d="M27.432,51.852c-1.108,0-2.007,0.899-2.007,2.007c0,1.109,0.899,2.007,2.007,2.007
			c1.108,0,2.007-0.899,2.007-2.007C29.438,52.751,28.54,51.852,27.432,51.852z"/>
		<path style="fill:#DFE6C8;" d="M38.991,51.852c-1.108,0-2.007,0.899-2.007,2.007c0,1.109,0.899,2.007,2.007,2.007
			c1.108,0,2.007-0.899,2.007-2.007C40.998,52.751,40.099,51.852,38.991,51.852z"/>
		<path style="fill:#DFE6C8;" d="M50.55,51.852c-1.108,0-2.007,0.899-2.007,2.007c0,1.109,0.898,2.007,2.007,2.007
			c1.109,0,2.007-0.899,2.007-2.007C52.557,52.751,51.659,51.852,50.55,51.852z"/>
		<path style="fill:#DFE6C8;" d="M62.109,51.852c-1.109,0-2.007,0.899-2.007,2.007c0,1.109,0.898,2.007,2.007,2.007
			c1.108,0,2.007-0.899,2.007-2.007C64.117,52.751,63.218,51.852,62.109,51.852z"/>
		<path style="fill:#DFE6C8;" d="M73.669,51.852c-1.108,0-2.007,0.899-2.007,2.007c0,1.109,0.899,2.007,2.007,2.007
			c1.108,0,2.007-0.899,2.007-2.007C75.676,52.751,74.777,51.852,73.669,51.852z"/>
		<path style="fill:#DFE6C8;" d="M33.054,60.541c-1.108,0-2.007,0.899-2.007,2.007c0,1.108,0.899,2.007,2.007,2.007
			c1.108,0,2.007-0.899,2.007-2.007C35.06,61.439,34.162,60.541,33.054,60.541z"/>
		<path style="fill:#DFE6C8;" d="M44.613,60.541c-1.109,0-2.007,0.899-2.007,2.007c0,1.108,0.898,2.007,2.007,2.007
			c1.108,0,2.007-0.899,2.007-2.007C46.619,61.439,45.721,60.541,44.613,60.541z"/>
		<path style="fill:#DFE6C8;" d="M56.172,60.541c-1.108,0-2.007,0.899-2.007,2.007c0,1.108,0.899,2.007,2.007,2.007
			c1.108,0,2.007-0.899,2.007-2.007C58.179,61.439,57.28,60.541,56.172,60.541z"/>
		<path style="fill:#DFE6C8;" d="M67.732,60.541c-1.108,0-2.007,0.899-2.007,2.007c0,1.108,0.899,2.007,2.007,2.007
			c1.108,0,2.007-0.899,2.007-2.007C69.738,61.439,68.84,60.541,67.732,60.541z"/>
		<path style="fill:#DFE6C8;" d="M79.291,60.541c-1.108,0-2.007,0.899-2.007,2.007c0,1.108,0.898,2.007,2.007,2.007
			c1.108,0,2.007-0.899,2.007-2.007C81.298,61.439,80.399,60.541,79.291,60.541z"/>
		<path style="fill:#DFE6C8;" d="M27.432,70.252c-1.108,0-2.007,0.899-2.007,2.007c0,1.107,0.899,2.006,2.007,2.006
			c1.108,0,2.007-0.899,2.007-2.006C29.438,71.15,28.54,70.252,27.432,70.252z"/>
		<path style="fill:#DFE6C8;" d="M38.991,70.252c-1.108,0-2.007,0.899-2.007,2.007c0,1.107,0.899,2.006,2.007,2.006
			c1.108,0,2.007-0.899,2.007-2.006C40.998,71.15,40.099,70.252,38.991,70.252z"/>
		<path style="fill:#DFE6C8;" d="M50.55,70.252c-1.108,0-2.007,0.899-2.007,2.007c0,1.107,0.898,2.006,2.007,2.006
			c1.109,0,2.007-0.899,2.007-2.006C52.557,71.15,51.659,70.252,50.55,70.252z"/>
		<path style="fill:#DFE6C8;" d="M62.109,70.252c-1.109,0-2.007,0.899-2.007,2.007c0,1.107,0.898,2.006,2.007,2.006
			c1.108,0,2.007-0.899,2.007-2.006C64.117,71.15,63.218,70.252,62.109,70.252z"/>
		<path style="fill:#DFE6C8;" d="M73.669,70.252c-1.108,0-2.007,0.899-2.007,2.007c0,1.107,0.899,2.006,2.007,2.006
			c1.108,0,2.007-0.899,2.007-2.006C75.676,71.15,74.777,70.252,73.669,70.252z"/>
		<path style="fill:#DFE6C8;" d="M33.054,78.94c-1.108,0-2.007,0.899-2.007,2.007c0,1.109,0.899,2.006,2.007,2.006
			c1.108,0,2.007-0.897,2.007-2.006C35.06,79.839,34.162,78.94,33.054,78.94z"/>
		<path style="fill:#DFE6C8;" d="M44.613,78.94c-1.109,0-2.007,0.899-2.007,2.007c0,1.109,0.898,2.006,2.007,2.006
			c1.108,0,2.007-0.897,2.007-2.006C46.619,79.839,45.721,78.94,44.613,78.94z"/>
		<path style="fill:#DFE6C8;" d="M56.172,78.94c-1.108,0-2.007,0.899-2.007,2.007c0,1.109,0.899,2.006,2.007,2.006
			c1.108,0,2.007-0.897,2.007-2.006C58.179,79.839,57.28,78.94,56.172,78.94z"/>
		<path style="fill:#DFE6C8;" d="M67.732,78.94c-1.108,0-2.007,0.899-2.007,2.007c0,1.109,0.899,2.006,2.007,2.006
			c1.108,0,2.007-0.897,2.007-2.006C69.738,79.839,68.84,78.94,67.732,78.94z"/>
		<path style="fill:#DFE6C8;" d="M79.291,78.94c-1.108,0-2.007,0.899-2.007,2.007c0,1.109,0.898,2.006,2.007,2.006
			c1.108,0,2.007-0.897,2.007-2.006C81.298,79.839,80.399,78.94,79.291,78.94z"/>
	</g>
	<g>
		<path style="fill:#DFE6C8;" d="M458.123,384.662c-1.108,0-2.007,0.898-2.007,2.007c0,1.107,0.899,2.006,2.007,2.006
			c1.108,0,2.007-0.899,2.007-2.006C460.13,385.56,459.231,384.662,458.123,384.662z"/>
		<path style="fill:#DFE6C8;" d="M469.683,384.662c-1.108,0-2.007,0.898-2.007,2.007c0,1.107,0.899,2.006,2.007,2.006
			c1.108,0,2.007-0.899,2.007-2.006C471.689,385.56,470.791,384.662,469.683,384.662z"/>
		<path style="fill:#DFE6C8;" d="M481.242,384.662c-1.108,0-2.007,0.898-2.007,2.007c0,1.107,0.898,2.006,2.007,2.006
			s2.007-0.899,2.007-2.006C483.249,385.56,482.35,384.662,481.242,384.662z"/>
		<path style="fill:#DFE6C8;" d="M492.801,384.662c-1.108,0-2.007,0.898-2.007,2.007c0,1.107,0.898,2.006,2.007,2.006
			c1.108,0,2.007-0.899,2.007-2.006C494.808,385.56,493.909,384.662,492.801,384.662z"/>
		<path style="fill:#DFE6C8;" d="M504.361,384.662c-1.108,0-2.007,0.898-2.007,2.007c0,1.107,0.899,2.006,2.007,2.006
			c1.108,0,2.007-0.899,2.007-2.006C506.368,385.56,505.469,384.662,504.361,384.662z"/>
		<path style="fill:#DFE6C8;" d="M463.745,393.35c-1.108,0-2.007,0.899-2.007,2.006c0,1.108,0.899,2.007,2.007,2.007
			c1.109,0,2.007-0.899,2.007-2.007C465.752,394.249,464.854,393.35,463.745,393.35z"/>
		<path style="fill:#DFE6C8;" d="M475.305,393.35c-1.109,0-2.007,0.899-2.007,2.006c0,1.108,0.898,2.007,2.007,2.007
			c1.108,0,2.007-0.899,2.007-2.007C477.311,394.249,476.413,393.35,475.305,393.35z"/>
		<path style="fill:#DFE6C8;" d="M486.863,393.35c-1.108,0-2.007,0.899-2.007,2.006c0,1.108,0.899,2.007,2.007,2.007
			c1.108,0,2.007-0.899,2.007-2.007C488.871,394.249,487.972,393.35,486.863,393.35z"/>
		<path style="fill:#DFE6C8;" d="M498.423,393.35c-1.108,0-2.007,0.899-2.007,2.006c0,1.108,0.899,2.007,2.007,2.007
			c1.108,0,2.007-0.899,2.007-2.007C500.43,394.249,499.531,393.35,498.423,393.35z"/>
		<path style="fill:#DFE6C8;" d="M509.982,393.35c-1.108,0-2.007,0.899-2.007,2.006c0,1.108,0.898,2.007,2.007,2.007
			s2.007-0.899,2.007-2.007C511.989,394.249,511.091,393.35,509.982,393.35z"/>
		<path style="fill:#DFE6C8;" d="M458.123,403.06c-1.108,0-2.007,0.899-2.007,2.007c0,1.109,0.899,2.007,2.007,2.007
			c1.108,0,2.007-0.899,2.007-2.007C460.13,403.959,459.231,403.06,458.123,403.06z"/>
		<path style="fill:#DFE6C8;" d="M469.683,403.06c-1.108,0-2.007,0.899-2.007,2.007c0,1.109,0.899,2.007,2.007,2.007
			c1.108,0,2.007-0.899,2.007-2.007C471.689,403.959,470.791,403.06,469.683,403.06z"/>
		<path style="fill:#DFE6C8;" d="M481.242,403.06c-1.108,0-2.007,0.899-2.007,2.007c0,1.109,0.898,2.007,2.007,2.007
			s2.007-0.899,2.007-2.007C483.249,403.959,482.35,403.06,481.242,403.06z"/>
		<path style="fill:#DFE6C8;" d="M492.801,403.06c-1.108,0-2.007,0.899-2.007,2.007c0,1.109,0.898,2.007,2.007,2.007
			c1.108,0,2.007-0.899,2.007-2.007C494.808,403.959,493.909,403.06,492.801,403.06z"/>
		<path style="fill:#DFE6C8;" d="M504.361,403.06c-1.108,0-2.007,0.899-2.007,2.007c0,1.109,0.899,2.007,2.007,2.007
			c1.108,0,2.007-0.899,2.007-2.007C506.368,403.959,505.469,403.06,504.361,403.06z"/>
		<path style="fill:#DFE6C8;" d="M463.745,411.748c-1.108,0-2.007,0.899-2.007,2.007c0,1.108,0.899,2.007,2.007,2.007
			c1.109,0,2.007-0.898,2.007-2.007C465.752,412.647,464.854,411.748,463.745,411.748z"/>
		<path style="fill:#DFE6C8;" d="M475.305,411.748c-1.109,0-2.007,0.899-2.007,2.007c0,1.108,0.898,2.007,2.007,2.007
			c1.108,0,2.007-0.898,2.007-2.007C477.311,412.647,476.413,411.748,475.305,411.748z"/>
		<path style="fill:#DFE6C8;" d="M486.863,411.748c-1.108,0-2.007,0.899-2.007,2.007c0,1.108,0.899,2.007,2.007,2.007
			c1.108,0,2.007-0.898,2.007-2.007C488.871,412.647,487.972,411.748,486.863,411.748z"/>
		<path style="fill:#DFE6C8;" d="M498.423,411.748c-1.108,0-2.007,0.899-2.007,2.007c0,1.108,0.899,2.007,2.007,2.007
			c1.108,0,2.007-0.898,2.007-2.007C500.43,412.647,499.531,411.748,498.423,411.748z"/>
		<path style="fill:#DFE6C8;" d="M509.982,411.748c-1.108,0-2.007,0.899-2.007,2.007c0,1.108,0.898,2.007,2.007,2.007
			s2.007-0.898,2.007-2.007C511.989,412.647,511.091,411.748,509.982,411.748z"/>
		<path style="fill:#DFE6C8;" d="M458.123,421.46c-1.108,0-2.007,0.899-2.007,2.007c0,1.107,0.899,2.006,2.007,2.006
			c1.108,0,2.007-0.899,2.007-2.006C460.13,422.358,459.231,421.46,458.123,421.46z"/>
		<path style="fill:#DFE6C8;" d="M469.683,421.46c-1.108,0-2.007,0.899-2.007,2.007c0,1.107,0.899,2.006,2.007,2.006
			c1.108,0,2.007-0.899,2.007-2.006C471.689,422.358,470.791,421.46,469.683,421.46z"/>
		<path style="fill:#DFE6C8;" d="M481.242,421.46c-1.108,0-2.007,0.899-2.007,2.007c0,1.107,0.898,2.006,2.007,2.006
			s2.007-0.899,2.007-2.006C483.249,422.358,482.35,421.46,481.242,421.46z"/>
		<path style="fill:#DFE6C8;" d="M492.801,421.46c-1.108,0-2.007,0.899-2.007,2.007c0,1.107,0.898,2.006,2.007,2.006
			c1.108,0,2.007-0.899,2.007-2.006C494.808,422.358,493.909,421.46,492.801,421.46z"/>
		<path style="fill:#DFE6C8;" d="M504.361,421.46c-1.108,0-2.007,0.899-2.007,2.007c0,1.107,0.899,2.006,2.007,2.006
			c1.108,0,2.007-0.899,2.007-2.006C506.368,422.358,505.469,421.46,504.361,421.46z"/>
		<path style="fill:#DFE6C8;" d="M463.745,430.148c-1.108,0-2.007,0.898-2.007,2.007c0,1.108,0.899,2.006,2.007,2.006
			c1.109,0,2.007-0.897,2.007-2.006C465.752,431.046,464.854,430.148,463.745,430.148z"/>
		<path style="fill:#DFE6C8;" d="M475.305,430.148c-1.109,0-2.007,0.898-2.007,2.007c0,1.108,0.898,2.006,2.007,2.006
			c1.108,0,2.007-0.897,2.007-2.006C477.311,431.046,476.413,430.148,475.305,430.148z"/>
		<path style="fill:#DFE6C8;" d="M486.863,430.148c-1.108,0-2.007,0.898-2.007,2.007c0,1.108,0.899,2.006,2.007,2.006
			c1.108,0,2.007-0.897,2.007-2.006C488.871,431.046,487.972,430.148,486.863,430.148z"/>
		<path style="fill:#DFE6C8;" d="M498.423,430.148c-1.108,0-2.007,0.898-2.007,2.007c0,1.108,0.899,2.006,2.007,2.006
			c1.108,0,2.007-0.897,2.007-2.006C500.43,431.046,499.531,430.148,498.423,430.148z"/>
		<path style="fill:#DFE6C8;" d="M509.982,430.148c-1.108,0-2.007,0.898-2.007,2.007c0,1.108,0.898,2.006,2.007,2.006
			s2.007-0.897,2.007-2.006C511.989,431.046,511.091,430.148,509.982,430.148z"/>
	</g>
	<g>
		<path style="fill:#DFE6C8;" d="M673.172,371.564c-1.108,0-2.007,0.899-2.007,2.007c0,1.107,0.899,2.006,2.007,2.006
			c1.108,0,2.006-0.899,2.006-2.006C675.178,372.462,674.28,371.564,673.172,371.564z"/>
		<path style="fill:#DFE6C8;" d="M684.731,371.564c-1.108,0-2.007,0.899-2.007,2.007c0,1.107,0.899,2.006,2.007,2.006
			c1.108,0,2.007-0.899,2.007-2.006C686.738,372.462,685.839,371.564,684.731,371.564z"/>
		<path style="fill:#DFE6C8;" d="M696.29,371.564c-1.108,0-2.006,0.899-2.006,2.007c0,1.107,0.898,2.006,2.006,2.006
			c1.109,0,2.007-0.899,2.007-2.006C698.297,372.462,697.398,371.564,696.29,371.564z"/>
		<path style="fill:#DFE6C8;" d="M707.849,371.564c-1.108,0-2.006,0.899-2.006,2.007c0,1.107,0.898,2.006,2.006,2.006
			c1.108,0,2.007-0.899,2.007-2.006C709.857,372.462,708.958,371.564,707.849,371.564z"/>
		<path style="fill:#DFE6C8;" d="M719.409,371.564c-1.109,0-2.007,0.899-2.007,2.007c0,1.107,0.899,2.006,2.007,2.006
			c1.108,0,2.007-0.899,2.007-2.006C721.416,372.462,720.517,371.564,719.409,371.564z"/>
		<path style="fill:#DFE6C8;" d="M678.793,380.252c-1.108,0-2.007,0.898-2.007,2.006c0,1.109,0.899,2.007,2.007,2.007
			c1.109,0,2.007-0.899,2.007-2.007C680.8,381.151,679.902,380.252,678.793,380.252z"/>
		<path style="fill:#DFE6C8;" d="M690.353,380.252c-1.108,0-2.007,0.898-2.007,2.006c0,1.109,0.899,2.007,2.007,2.007
			s2.006-0.899,2.006-2.007C692.359,381.151,691.461,380.252,690.353,380.252z"/>
		<path style="fill:#DFE6C8;" d="M701.912,380.252c-1.108,0-2.007,0.898-2.007,2.006c0,1.109,0.899,2.007,2.007,2.007
			c1.108,0,2.007-0.899,2.007-2.007C703.919,381.151,703.02,380.252,701.912,380.252z"/>
		<path style="fill:#DFE6C8;" d="M713.472,380.252c-1.108,0-2.007,0.898-2.007,2.006c0,1.109,0.898,2.007,2.007,2.007
			c1.108,0,2.007-0.899,2.007-2.007C715.478,381.151,714.58,380.252,713.472,380.252z"/>
		<path style="fill:#DFE6C8;" d="M725.031,380.252c-1.108,0-2.006,0.898-2.006,2.006c0,1.109,0.898,2.007,2.006,2.007
			c1.109,0,2.007-0.899,2.007-2.007C727.038,381.151,726.139,380.252,725.031,380.252z"/>
		<path style="fill:#DFE6C8;" d="M673.172,389.962c-1.108,0-2.007,0.899-2.007,2.007c0,1.108,0.899,2.007,2.007,2.007
			c1.108,0,2.006-0.899,2.006-2.007C675.178,390.861,674.28,389.962,673.172,389.962z"/>
		<path style="fill:#DFE6C8;" d="M684.731,389.962c-1.108,0-2.007,0.899-2.007,2.007c0,1.108,0.899,2.007,2.007,2.007
			c1.108,0,2.007-0.899,2.007-2.007C686.738,390.861,685.839,389.962,684.731,389.962z"/>
		<path style="fill:#DFE6C8;" d="M696.29,389.962c-1.108,0-2.006,0.899-2.006,2.007c0,1.108,0.898,2.007,2.006,2.007
			c1.109,0,2.007-0.899,2.007-2.007C698.297,390.861,697.398,389.962,696.29,389.962z"/>
		<path style="fill:#DFE6C8;" d="M707.849,389.962c-1.108,0-2.006,0.899-2.006,2.007c0,1.108,0.898,2.007,2.006,2.007
			c1.108,0,2.007-0.899,2.007-2.007C709.857,390.861,708.958,389.962,707.849,389.962z"/>
		<path style="fill:#DFE6C8;" d="M719.409,389.962c-1.109,0-2.007,0.899-2.007,2.007c0,1.108,0.899,2.007,2.007,2.007
			c1.108,0,2.007-0.899,2.007-2.007C721.416,390.861,720.517,389.962,719.409,389.962z"/>
		<path style="fill:#DFE6C8;" d="M678.793,398.651c-1.108,0-2.007,0.899-2.007,2.007s0.899,2.007,2.007,2.007
			c1.109,0,2.007-0.899,2.007-2.007S679.902,398.651,678.793,398.651z"/>
		<path style="fill:#DFE6C8;" d="M690.353,398.651c-1.108,0-2.007,0.899-2.007,2.007s0.899,2.007,2.007,2.007
			s2.006-0.899,2.006-2.007S691.461,398.651,690.353,398.651z"/>
		<path style="fill:#DFE6C8;" d="M701.912,398.651c-1.108,0-2.007,0.899-2.007,2.007s0.899,2.007,2.007,2.007
			c1.108,0,2.007-0.899,2.007-2.007S703.02,398.651,701.912,398.651z"/>
		<path style="fill:#DFE6C8;" d="M713.472,398.651c-1.108,0-2.007,0.899-2.007,2.007s0.898,2.007,2.007,2.007
			c1.108,0,2.007-0.899,2.007-2.007S714.58,398.651,713.472,398.651z"/>
		<path style="fill:#DFE6C8;" d="M725.031,398.651c-1.108,0-2.006,0.899-2.006,2.007s0.898,2.007,2.006,2.007
			c1.109,0,2.007-0.899,2.007-2.007S726.139,398.651,725.031,398.651z"/>
		<path style="fill:#DFE6C8;" d="M673.172,408.362c-1.108,0-2.007,0.899-2.007,2.007c0,1.107,0.899,2.006,2.007,2.006
			c1.108,0,2.006-0.899,2.006-2.006C675.178,409.26,674.28,408.362,673.172,408.362z"/>
		<path style="fill:#DFE6C8;" d="M684.731,408.362c-1.108,0-2.007,0.899-2.007,2.007c0,1.107,0.899,2.006,2.007,2.006
			c1.108,0,2.007-0.899,2.007-2.006C686.738,409.26,685.839,408.362,684.731,408.362z"/>
		<path style="fill:#DFE6C8;" d="M696.29,408.362c-1.108,0-2.006,0.899-2.006,2.007c0,1.107,0.898,2.006,2.006,2.006
			c1.109,0,2.007-0.899,2.007-2.006C698.297,409.26,697.398,408.362,696.29,408.362z"/>
		<path style="fill:#DFE6C8;" d="M707.849,408.362c-1.108,0-2.006,0.899-2.006,2.007c0,1.107,0.898,2.006,2.006,2.006
			c1.108,0,2.007-0.899,2.007-2.006C709.857,409.26,708.958,408.362,707.849,408.362z"/>
		<path style="fill:#DFE6C8;" d="M719.409,408.362c-1.109,0-2.007,0.899-2.007,2.007c0,1.107,0.899,2.006,2.007,2.006
			c1.108,0,2.007-0.899,2.007-2.006C721.416,409.26,720.517,408.362,719.409,408.362z"/>
		<path style="fill:#DFE6C8;" d="M678.793,417.05c-1.108,0-2.007,0.899-2.007,2.007s0.899,2.006,2.007,2.006
			c1.109,0,2.007-0.897,2.007-2.006S679.902,417.05,678.793,417.05z"/>
		<path style="fill:#DFE6C8;" d="M690.353,417.05c-1.108,0-2.007,0.899-2.007,2.007s0.899,2.006,2.007,2.006
			s2.006-0.897,2.006-2.006S691.461,417.05,690.353,417.05z"/>
		<path style="fill:#DFE6C8;" d="M701.912,417.05c-1.108,0-2.007,0.899-2.007,2.007s0.899,2.006,2.007,2.006
			c1.108,0,2.007-0.897,2.007-2.006S703.02,417.05,701.912,417.05z"/>
		<path style="fill:#DFE6C8;" d="M713.472,417.05c-1.108,0-2.007,0.899-2.007,2.007s0.898,2.006,2.007,2.006
			c1.108,0,2.007-0.897,2.007-2.006S714.58,417.05,713.472,417.05z"/>
		<path style="fill:#DFE6C8;" d="M725.031,417.05c-1.108,0-2.006,0.899-2.006,2.007s0.898,2.006,2.006,2.006
			c1.109,0,2.007-0.897,2.007-2.006S726.139,417.05,725.031,417.05z"/>
	</g>
</g>
<g>
	<defs>
		<rect id="SVGID_1_" x="1.394" y="0.472" width="749.019" height="499.978"/>
	</defs>
	<clipPath id="SVGID_00000020400016571422473360000010949554542918588831_">
		<use xlink:href="#SVGID_1_"  style="overflow:visible;"/>
	</clipPath>
	<g style="clip-path:url(#SVGID_00000020400016571422473360000010949554542918588831_);">
		<g>
			
				<line style="fill:none;stroke:#CEDBA1;stroke-width:2;stroke-miterlimit:10;" x1="322.951" y1="66.651" x2="359.662" y2="99.112"/>
			
				<line style="fill:none;stroke:#CEDBA1;stroke-width:2;stroke-miterlimit:10;" x1="317.787" y1="72.491" x2="354.497" y2="104.951"/>
			
				<line style="fill:none;stroke:#CEDBA1;stroke-width:2;stroke-miterlimit:10;" x1="312.623" y1="78.331" x2="349.333" y2="110.792"/>
			
				<line style="fill:none;stroke:#CEDBA1;stroke-width:2;stroke-miterlimit:10;" x1="307.459" y1="84.171" x2="344.169" y2="116.632"/>
			
				<line style="fill:none;stroke:#CEDBA1;stroke-width:2;stroke-miterlimit:10;" x1="302.295" y1="90.012" x2="339.005" y2="122.473"/>
			
				<line style="fill:none;stroke:#CEDBA1;stroke-width:2;stroke-miterlimit:10;" x1="297.131" y1="95.852" x2="333.841" y2="128.313"/>
		</g>
		<g>
			
				<line style="fill:none;stroke:#CEDBA1;stroke-width:2;stroke-miterlimit:10;" x1="36.159" y1="186.064" x2="72.87" y2="218.525"/>
			
				<line style="fill:none;stroke:#CEDBA1;stroke-width:2;stroke-miterlimit:10;" x1="30.995" y1="191.904" x2="67.705" y2="224.365"/>
			
				<line style="fill:none;stroke:#CEDBA1;stroke-width:2;stroke-miterlimit:10;" x1="25.831" y1="197.745" x2="62.541" y2="230.206"/>
			
				<line style="fill:none;stroke:#CEDBA1;stroke-width:2;stroke-miterlimit:10;" x1="20.667" y1="203.585" x2="57.377" y2="236.045"/>
			
				<line style="fill:none;stroke:#CEDBA1;stroke-width:2;stroke-miterlimit:10;" x1="15.503" y1="209.425" x2="52.213" y2="241.886"/>
			
				<line style="fill:none;stroke:#CEDBA1;stroke-width:2;stroke-miterlimit:10;" x1="10.339" y1="215.265" x2="47.049" y2="247.726"/>
		</g>
		<g>
			
				<line style="fill:none;stroke:#CEDBA1;stroke-width:2;stroke-miterlimit:10;" x1="257.645" y1="222.718" x2="294.356" y2="255.179"/>
			
				<line style="fill:none;stroke:#CEDBA1;stroke-width:2;stroke-miterlimit:10;" x1="252.481" y1="228.559" x2="289.191" y2="261.019"/>
			
				<line style="fill:none;stroke:#CEDBA1;stroke-width:2;stroke-miterlimit:10;" x1="247.317" y1="234.399" x2="284.027" y2="266.86"/>
			
				<line style="fill:none;stroke:#CEDBA1;stroke-width:2;stroke-miterlimit:10;" x1="242.153" y1="240.239" x2="278.863" y2="272.7"/>
			
				<line style="fill:none;stroke:#CEDBA1;stroke-width:2;stroke-miterlimit:10;" x1="236.989" y1="246.08" x2="273.699" y2="278.541"/>
			
				<line style="fill:none;stroke:#CEDBA1;stroke-width:2;stroke-miterlimit:10;" x1="231.825" y1="251.92" x2="268.535" y2="284.38"/>
		</g>
		<g>
			
				<line style="fill:none;stroke:#CEDBA1;stroke-width:2;stroke-miterlimit:10;" x1="213.972" y1="359.977" x2="250.683" y2="392.438"/>
			
				<line style="fill:none;stroke:#CEDBA1;stroke-width:2;stroke-miterlimit:10;" x1="208.808" y1="365.818" x2="245.518" y2="398.278"/>
			
				<line style="fill:none;stroke:#CEDBA1;stroke-width:2;stroke-miterlimit:10;" x1="203.644" y1="371.658" x2="240.354" y2="404.119"/>
			
				<line style="fill:none;stroke:#CEDBA1;stroke-width:2;stroke-miterlimit:10;" x1="198.48" y1="377.498" x2="235.19" y2="409.959"/>
			
				<line style="fill:none;stroke:#CEDBA1;stroke-width:2;stroke-miterlimit:10;" x1="193.316" y1="383.339" x2="230.026" y2="415.8"/>
			
				<line style="fill:none;stroke:#CEDBA1;stroke-width:2;stroke-miterlimit:10;" x1="188.152" y1="389.179" x2="224.862" y2="421.639"/>
		</g>
		<g>
			
				<line style="fill:none;stroke:#CEDBA1;stroke-width:2;stroke-miterlimit:10;" x1="77.493" y1="418.469" x2="114.204" y2="450.929"/>
			
				<line style="fill:none;stroke:#CEDBA1;stroke-width:2;stroke-miterlimit:10;" x1="72.329" y1="424.309" x2="109.039" y2="456.769"/>
			
				<line style="fill:none;stroke:#CEDBA1;stroke-width:2;stroke-miterlimit:10;" x1="67.165" y1="430.149" x2="103.875" y2="462.61"/>
			
				<line style="fill:none;stroke:#CEDBA1;stroke-width:2;stroke-miterlimit:10;" x1="62.001" y1="435.989" x2="98.711" y2="468.45"/>
			
				<line style="fill:none;stroke:#CEDBA1;stroke-width:2;stroke-miterlimit:10;" x1="56.837" y1="441.83" x2="93.547" y2="474.291"/>
			
				<line style="fill:none;stroke:#CEDBA1;stroke-width:2;stroke-miterlimit:10;" x1="51.673" y1="447.67" x2="88.382" y2="480.131"/>
		</g>
		<g>
			
				<line style="fill:none;stroke:#CEDBA1;stroke-width:2;stroke-miterlimit:10;" x1="429.219" y1="291.348" x2="465.93" y2="323.809"/>
			
				<line style="fill:none;stroke:#CEDBA1;stroke-width:2;stroke-miterlimit:10;" x1="424.055" y1="297.188" x2="460.765" y2="329.649"/>
			
				<line style="fill:none;stroke:#CEDBA1;stroke-width:2;stroke-miterlimit:10;" x1="418.891" y1="303.029" x2="455.601" y2="335.49"/>
			
				<line style="fill:none;stroke:#CEDBA1;stroke-width:2;stroke-miterlimit:10;" x1="413.727" y1="308.868" x2="450.437" y2="341.329"/>
			
				<line style="fill:none;stroke:#CEDBA1;stroke-width:2;stroke-miterlimit:10;" x1="408.563" y1="314.709" x2="445.273" y2="347.17"/>
			
				<line style="fill:none;stroke:#CEDBA1;stroke-width:2;stroke-miterlimit:10;" x1="403.399" y1="320.549" x2="440.109" y2="353.01"/>
		</g>
		<g>
			<line style="fill:none;stroke:#CEDBA1;stroke-width:2;stroke-miterlimit:10;" x1="488.49" y1="83.9" x2="525.201" y2="116.36"/>
			<line style="fill:none;stroke:#CEDBA1;stroke-width:2;stroke-miterlimit:10;" x1="483.326" y1="89.74" x2="520.036" y2="122.2"/>
			
				<line style="fill:none;stroke:#CEDBA1;stroke-width:2;stroke-miterlimit:10;" x1="478.162" y1="95.58" x2="514.872" y2="128.041"/>
			
				<line style="fill:none;stroke:#CEDBA1;stroke-width:2;stroke-miterlimit:10;" x1="472.998" y1="101.42" x2="509.708" y2="133.881"/>
			
				<line style="fill:none;stroke:#CEDBA1;stroke-width:2;stroke-miterlimit:10;" x1="467.834" y1="107.261" x2="504.544" y2="139.722"/>
			
				<line style="fill:none;stroke:#CEDBA1;stroke-width:2;stroke-miterlimit:10;" x1="462.67" y1="113.101" x2="499.38" y2="145.562"/>
		</g>
		<g>
			
				<line style="fill:none;stroke:#CEDBA1;stroke-width:2;stroke-miterlimit:10;" x1="603.133" y1="314.744" x2="639.843" y2="347.205"/>
			
				<line style="fill:none;stroke:#CEDBA1;stroke-width:2;stroke-miterlimit:10;" x1="597.968" y1="320.585" x2="634.678" y2="353.045"/>
			
				<line style="fill:none;stroke:#CEDBA1;stroke-width:2;stroke-miterlimit:10;" x1="592.804" y1="326.425" x2="629.514" y2="358.886"/>
			
				<line style="fill:none;stroke:#CEDBA1;stroke-width:2;stroke-miterlimit:10;" x1="587.64" y1="332.265" x2="624.35" y2="364.726"/>
			
				<line style="fill:none;stroke:#CEDBA1;stroke-width:2;stroke-miterlimit:10;" x1="582.476" y1="338.106" x2="619.186" y2="370.567"/>
			
				<line style="fill:none;stroke:#CEDBA1;stroke-width:2;stroke-miterlimit:10;" x1="577.312" y1="343.945" x2="614.022" y2="376.406"/>
		</g>
		<g>
			
				<line style="fill:none;stroke:#CEDBA1;stroke-width:2;stroke-miterlimit:10;" x1="595.334" y1="459.802" x2="632.044" y2="492.263"/>
			
				<line style="fill:none;stroke:#CEDBA1;stroke-width:2;stroke-miterlimit:10;" x1="590.169" y1="465.642" x2="626.88" y2="498.103"/>
			
				<line style="fill:none;stroke:#CEDBA1;stroke-width:2;stroke-miterlimit:10;" x1="585.005" y1="471.483" x2="621.715" y2="503.944"/>
			
				<line style="fill:none;stroke:#CEDBA1;stroke-width:2;stroke-miterlimit:10;" x1="579.841" y1="477.323" x2="616.551" y2="509.784"/>
			
				<line style="fill:none;stroke:#CEDBA1;stroke-width:2;stroke-miterlimit:10;" x1="574.677" y1="483.163" x2="611.387" y2="515.624"/>
			
				<line style="fill:none;stroke:#CEDBA1;stroke-width:2;stroke-miterlimit:10;" x1="569.513" y1="489.003" x2="606.223" y2="521.464"/>
		</g>
		<g>
			
				<line style="fill:none;stroke:#CEDBA1;stroke-width:2;stroke-miterlimit:10;" x1="730.253" y1="99.497" x2="766.964" y2="131.958"/>
			
				<line style="fill:none;stroke:#CEDBA1;stroke-width:2;stroke-miterlimit:10;" x1="725.089" y1="105.338" x2="761.799" y2="137.798"/>
			
				<line style="fill:none;stroke:#CEDBA1;stroke-width:2;stroke-miterlimit:10;" x1="719.925" y1="111.178" x2="756.635" y2="143.639"/>
			
				<line style="fill:none;stroke:#CEDBA1;stroke-width:2;stroke-miterlimit:10;" x1="714.761" y1="117.018" x2="751.471" y2="149.479"/>
			
				<line style="fill:none;stroke:#CEDBA1;stroke-width:2;stroke-miterlimit:10;" x1="709.597" y1="122.858" x2="746.307" y2="155.32"/>
			
				<line style="fill:none;stroke:#CEDBA1;stroke-width:2;stroke-miterlimit:10;" x1="704.433" y1="128.698" x2="741.143" y2="161.159"/>
		</g>
		<g>
			
				<line style="fill:none;stroke:#CEDBA1;stroke-width:2;stroke-miterlimit:10;" x1="118.826" y1="-14.365" x2="155.537" y2="18.096"/>
			
				<line style="fill:none;stroke:#CEDBA1;stroke-width:2;stroke-miterlimit:10;" x1="113.662" y1="-8.525" x2="150.372" y2="23.935"/>
			
				<line style="fill:none;stroke:#CEDBA1;stroke-width:2;stroke-miterlimit:10;" x1="108.498" y1="-2.685" x2="145.208" y2="29.776"/>
			
				<line style="fill:none;stroke:#CEDBA1;stroke-width:2;stroke-miterlimit:10;" x1="103.334" y1="3.155" x2="140.044" y2="35.616"/>
			<line style="fill:none;stroke:#CEDBA1;stroke-width:2;stroke-miterlimit:10;" x1="98.17" y1="8.996" x2="134.88" y2="41.457"/>
			
				<line style="fill:none;stroke:#CEDBA1;stroke-width:2;stroke-miterlimit:10;" x1="93.006" y1="14.836" x2="129.716" y2="47.297"/>
		</g>
	</g>
</g>
<polygon style="fill:#DFE6C8;" points="366.989,141.217 380.819,127.386 366.298,112.865 351.623,127.539 "/>
<polygon style="fill:#BFCD92;" points="420.376,488.242 427.53,450.169 399.875,450.169 "/>
<polygon style="fill:#ABBD6F;" points="711.886,230.023 723.677,207.105 696.022,207.105 "/>
<polygon style="fill:#ABBD6F;" points="311.923,338.496 323.714,315.577 296.059,315.577 "/>
<polygon style="fill:#ABBD6F;" points="694.47,400.18 705.072,379.573 680.205,379.573 "/>
<polygon style="fill:#ABBD6F;" points="47.772,148.048 59.563,125.13 31.908,125.13 "/>
<polygon style="fill:#4A5C45;" points="64.33,323.757 54.73,308.788 33.741,323.757 "/>
<polygon style="fill:#82C269;" points="396.726,252.943 383.109,232.639 375.404,260.417 "/>
<polygon style="fill:#4A5C45;" points="473.574,93.071 458.279,76.551 442.985,93.071 "/>
<polygon style="fill:#4A5C45;" points="275.052,270.574 257.795,255.605 244.463,270.574 "/>
<polygon style="fill:#4A5C45;" points="716.339,317.983 702.576,297.791 691.943,317.983 "/>
<polygon style="fill:#C2E1B5;" points="148.527,311.247 142.995,298.556 109.477,298.556 "/>
<polygon style="fill:#C2E1B5;" points="306.957,61.688 313.628,41.6 287.432,41.6 "/>
<polygon style="fill:#C2E1B5;" points="224.272,384.18 230.943,364.092 204.747,364.092 "/>
<polygon style="fill:#8CC775;" points="296.431,115.919 271.699,129.261 263.076,107.133 "/>
<polygon style="fill:#8CC775;" points="59.941,464.092 35.209,477.434 26.586,455.305 "/>
<polygon style="fill:#8CC775;" points="644.845,136.456 617.259,141.062 615.66,118.636 "/>
<polygon style="fill:#8CC775;" points="44.214,41.75 17.291,33.696 26.841,11.952 "/>
<polygon style="fill:#DFE6C8;" points="557.419,57.72 571.249,43.889 556.727,29.368 542.053,44.042 "/>
<polygon style="fill:#DFE6C8;" points="430.172,312.551 449.707,313.516 450.721,293.005 429.993,291.981 "/>
<polygon style="fill:#DFE6C8;" points="98.455,189.73 112.285,175.9 97.764,161.378 83.09,176.053 "/>
<polygon style="fill:#BFCD92;" points="199.042,67.615 206.196,29.541 178.541,29.541 "/>
<polygon style="fill:#ABBD6F;" points="191.618,224.185 203.409,201.267 175.754,201.267 "/>
<polygon style="fill:#8CC775;" points="698.328,31.506 721.245,43.297 721.245,15.642 "/>
<polygon style="fill:#ABBD6F;" points="560.494,309.556 572.284,286.638 544.63,286.638 "/>
<polygon style="fill:#ABBD6F;" points="640.296,65.729 647.976,50.8 629.963,50.8 "/>
<polygon style="fill:#ABBD6F;" points="536.614,111.089 524.171,135.275 553.356,135.275 "/>
<polygon style="fill:#4A5C45;" points="493.786,343.664 484.186,328.695 463.197,343.664 "/>
<polygon style="fill:#4A5C45;" points="281.754,457.97 298.275,442.675 281.754,427.381 "/>
<polygon style="fill:#4A5C45;" points="189.598,125.996 172.341,111.027 159.009,125.996 "/>
<polygon style="fill:#C2E1B5;" points="522.201,441.289 516.669,428.597 483.151,428.597 "/>
<polygon style="fill:#C2E1B5;" points="300.169,213.184 306.84,193.096 280.644,193.096 "/>
<polygon style="fill:#C2E1B5;" points="113.669,74.278 120.34,54.19 94.144,54.19 "/>
<polygon style="fill:#C2E1B5;" points="460.32,163.893 466.992,143.805 440.796,143.805 "/>
<polygon style="fill:#8CC775;" points="625.766,447.634 601.034,460.976 592.411,438.848 "/>
<polygon style="fill:#8CC775;" points="652.164,262.048 627.432,275.39 618.809,253.261 "/>
<polygon style="fill:#8CC775;" points="78.899,245.138 54.167,258.48 45.544,236.352 "/>
<polygon style="fill:#8CC775;" points="116.597,388.484 102.982,400.578 97.697,383.506 "/>
<polygon style="fill:#DFE6C8;" points="612.917,392.829 624.345,381.401 612.345,369.401 600.22,381.527 "/>
<polygon style="fill:#DFE6C8;" points="364.253,379.699 378.083,365.868 363.383,355.331 348.887,366.021 "/>
<polygon style="fill:#DFE6C8;" points="415.177,31.733 427.484,31.733 427.484,18.81 414.426,18.81 "/>
<polygon style="fill:#DFE6C8;" points="204.652,462.203 218.483,448.373 203.961,433.851 189.287,448.525 "/>
<polygon style="fill:#DFE6C8;" points="576.001,214.725 595.536,215.69 596.549,195.178 575.822,194.154 "/>
<polygon style="fill:#DFE6C8;" points="692.869,468.619 706.085,469.423 706.612,455.531 692.589,454.677 "/>
<polygon style="fill:#DFE6C8;" points="691.096,146.617 710.631,147.582 711.644,127.071 690.917,126.047 "/>
<polygon style="fill:#4A5C45;" points="498.924,208.691 487.627,226.682 476.329,208.691 "/>
<g>
	<polyline style="fill:none;stroke:#778F47;stroke-width:2.899;stroke-miterlimit:10;" points="623.655,8.954 632.193,16.685 
		640.734,8.954 649.273,16.685 657.818,8.954 666.362,16.685 	"/>
</g>
<g>
	<polyline style="fill:none;stroke:#778F47;stroke-width:2.899;stroke-miterlimit:10;" points="345.269,420.576 353.808,428.307 
		362.349,420.576 370.888,428.307 379.432,420.576 387.977,428.307 	"/>
</g>
<g>
	<polyline style="fill:none;stroke:#778F47;stroke-width:2.899;stroke-miterlimit:10;" points="570.539,336.841 579.078,344.571 
		587.62,336.841 596.158,344.571 604.703,336.841 613.247,344.571 	"/>
</g>
<g>
	<polyline style="fill:none;stroke:#778F47;stroke-width:2.899;stroke-miterlimit:10;" points="61.546,22.048 70.084,29.778 
		78.626,22.048 87.164,29.778 95.709,22.048 104.254,29.778 	"/>
</g>
<g>
	
		<line style="fill:none;stroke:#778F47;stroke-width:2.899;stroke-miterlimit:10;" x1="229.742" y1="18.655" x2="234.234" y2="23.147"/>
	
		<line style="fill:none;stroke:#778F47;stroke-width:2.899;stroke-miterlimit:10;" x1="244.181" y1="18.976" x2="239.689" y2="23.468"/>
	
		<line style="fill:none;stroke:#778F47;stroke-width:2.899;stroke-miterlimit:10;" x1="243.86" y1="33.415" x2="239.368" y2="28.923"/>
	
		<line style="fill:none;stroke:#778F47;stroke-width:2.899;stroke-miterlimit:10;" x1="229.422" y1="33.094" x2="233.914" y2="28.602"/>
</g>
<g>
	
		<line style="fill:none;stroke:#778F47;stroke-width:2.899;stroke-miterlimit:10;" x1="562.683" y1="84.183" x2="567.175" y2="88.675"/>
	
		<line style="fill:none;stroke:#778F47;stroke-width:2.899;stroke-miterlimit:10;" x1="577.122" y1="84.504" x2="572.63" y2="88.995"/>
	
		<line style="fill:none;stroke:#778F47;stroke-width:2.899;stroke-miterlimit:10;" x1="576.801" y1="98.942" x2="572.309" y2="94.45"/>
	
		<line style="fill:none;stroke:#778F47;stroke-width:2.899;stroke-miterlimit:10;" x1="562.362" y1="98.621" x2="566.854" y2="94.129"/>
</g>
<g>
	
		<line style="fill:none;stroke:#171717;stroke-width:2.899;stroke-miterlimit:10;" x1="694.005" y1="253.28" x2="698.497" y2="257.772"/>
	
		<line style="fill:none;stroke:#171717;stroke-width:2.899;stroke-miterlimit:10;" x1="708.443" y1="253.601" x2="703.951" y2="258.093"/>
	
		<line style="fill:none;stroke:#171717;stroke-width:2.899;stroke-miterlimit:10;" x1="708.123" y1="268.039" x2="703.631" y2="263.547"/>
	
		<line style="fill:none;stroke:#171717;stroke-width:2.899;stroke-miterlimit:10;" x1="693.684" y1="267.718" x2="698.176" y2="263.226"/>
</g>
<g>
	
		<line style="fill:none;stroke:#171717;stroke-width:2.899;stroke-miterlimit:10;" x1="156.53" y1="405.159" x2="161.022" y2="409.651"/>
	
		<line style="fill:none;stroke:#171717;stroke-width:2.899;stroke-miterlimit:10;" x1="170.969" y1="405.48" x2="166.477" y2="409.972"/>
	
		<line style="fill:none;stroke:#171717;stroke-width:2.899;stroke-miterlimit:10;" x1="170.648" y1="419.918" x2="166.156" y2="415.426"/>
	
		<line style="fill:none;stroke:#171717;stroke-width:2.899;stroke-miterlimit:10;" x1="156.209" y1="419.598" x2="160.701" y2="415.106"/>
</g>
<g>
	
		<line style="fill:none;stroke:#171717;stroke-width:2.899;stroke-miterlimit:10;" x1="236.894" y1="200.304" x2="241.386" y2="204.796"/>
	
		<line style="fill:none;stroke:#171717;stroke-width:2.899;stroke-miterlimit:10;" x1="251.332" y1="200.625" x2="246.841" y2="205.117"/>
	
		<line style="fill:none;stroke:#171717;stroke-width:2.899;stroke-miterlimit:10;" x1="251.012" y1="215.064" x2="246.52" y2="210.572"/>
	
		<line style="fill:none;stroke:#171717;stroke-width:2.899;stroke-miterlimit:10;" x1="236.573" y1="214.743" x2="241.065" y2="210.251"/>
</g>
<g>
	<path style="fill:none;stroke:#171717;stroke-width:2.6056;stroke-miterlimit:10;" d="M123.945,246.104
		c0,2.494-2.022,4.516-4.516,4.516c-2.494,0-4.516-2.022-4.516-4.516c0-2.494,2.022-4.516,4.516-4.516
		C121.923,241.588,123.945,243.61,123.945,246.104z"/>
	<path style="fill:none;stroke:#171717;stroke-width:2.6056;stroke-miterlimit:10;" d="M141.445,241.588
		c2.494,0,4.516,2.022,4.516,4.516c0,2.494-2.022,4.516-4.516,4.516"/>
	
		<line style="fill:none;stroke:#171717;stroke-width:2.6056;stroke-miterlimit:10;" x1="119.429" y1="241.588" x2="141.445" y2="241.588"/>
	
		<line style="fill:none;stroke:#171717;stroke-width:2.6056;stroke-miterlimit:10;" x1="119.429" y1="250.62" x2="141.445" y2="250.62"/>
</g>
<g>
	<path style="fill:none;stroke:#4A5C45;stroke-width:2.6056;stroke-miterlimit:10;" d="M372.72,83.463
		c0,2.494-2.022,4.516-4.516,4.516c-2.494,0-4.516-2.022-4.516-4.516c0-2.494,2.022-4.516,4.516-4.516
		C370.698,78.947,372.72,80.968,372.72,83.463z"/>
	<path style="fill:none;stroke:#4A5C45;stroke-width:2.6056;stroke-miterlimit:10;" d="M390.22,78.947
		c2.494,0,4.516,2.022,4.516,4.516c0,2.494-2.022,4.516-4.516,4.516"/>
	
		<line style="fill:none;stroke:#4A5C45;stroke-width:2.6056;stroke-miterlimit:10;" x1="368.204" y1="78.947" x2="390.22" y2="78.947"/>
	
		<line style="fill:none;stroke:#4A5C45;stroke-width:2.6056;stroke-miterlimit:10;" x1="368.204" y1="87.979" x2="390.22" y2="87.979"/>
</g>
<g>
	<path style="fill:none;stroke:#778F47;stroke-width:2.6056;stroke-miterlimit:10;" d="M495.338,267.069
		c0,2.494-2.022,4.516-4.516,4.516s-4.516-2.022-4.516-4.516c0-2.494,2.022-4.516,4.516-4.516S495.338,264.575,495.338,267.069z"/>
	<path style="fill:none;stroke:#778F47;stroke-width:2.6056;stroke-miterlimit:10;" d="M512.837,262.553
		c2.494,0,4.516,2.022,4.516,4.516c0,2.494-2.022,4.516-4.516,4.516"/>
	
		<line style="fill:none;stroke:#778F47;stroke-width:2.6056;stroke-miterlimit:10;" x1="490.822" y1="262.553" x2="512.837" y2="262.553"/>
	
		<line style="fill:none;stroke:#778F47;stroke-width:2.6056;stroke-miterlimit:10;" x1="490.822" y1="271.585" x2="512.837" y2="271.585"/>
</g>
<g>
	<path style="fill:none;stroke:#778F47;stroke-width:2.6056;stroke-miterlimit:10;" d="M156.635,360.979
		c0,2.494-2.022,4.516-4.516,4.516s-4.516-2.022-4.516-4.516c0-2.494,2.022-4.516,4.516-4.516S156.635,358.485,156.635,360.979z"/>
	<path style="fill:none;stroke:#778F47;stroke-width:2.6056;stroke-miterlimit:10;" d="M174.135,356.463
		c2.494,0,4.516,2.022,4.516,4.516c0,2.494-2.022,4.516-4.516,4.516"/>
	
		<line style="fill:none;stroke:#778F47;stroke-width:2.6056;stroke-miterlimit:10;" x1="152.119" y1="356.463" x2="174.135" y2="356.463"/>
	
		<line style="fill:none;stroke:#778F47;stroke-width:2.6056;stroke-miterlimit:10;" x1="152.119" y1="365.495" x2="174.135" y2="365.495"/>
</g>
<g>
	<path style="fill:none;stroke:#171717;stroke-width:2.6056;stroke-miterlimit:10;" d="M647.006,415.106
		c0,2.494-2.022,4.516-4.516,4.516c-2.494,0-4.516-2.022-4.516-4.516c0-2.494,2.022-4.516,4.516-4.516
		C644.984,410.59,647.006,412.612,647.006,415.106z"/>
	<path style="fill:none;stroke:#171717;stroke-width:2.6056;stroke-miterlimit:10;" d="M664.505,410.59
		c2.494,0,4.516,2.022,4.516,4.516c0,2.494-2.022,4.516-4.516,4.516"/>
	
		<line style="fill:none;stroke:#171717;stroke-width:2.6056;stroke-miterlimit:10;" x1="642.49" y1="410.59" x2="664.505" y2="410.59"/>
	
		<line style="fill:none;stroke:#171717;stroke-width:2.6056;stroke-miterlimit:10;" x1="642.49" y1="419.622" x2="664.505" y2="419.622"/>
</g>
<g>
	<path style="fill:none;stroke:#778F47;stroke-width:2.6056;stroke-miterlimit:10;" d="M433.89,377.918
		c0,2.494-2.022,4.516-4.516,4.516s-4.516-2.022-4.516-4.516c0-2.494,2.022-4.516,4.516-4.516S433.89,375.423,433.89,377.918z"/>
	<path style="fill:none;stroke:#778F47;stroke-width:2.6056;stroke-miterlimit:10;" d="M451.389,373.402
		c2.494,0,4.516,2.022,4.516,4.516c0,2.494-2.022,4.516-4.516,4.516"/>
	
		<line style="fill:none;stroke:#778F47;stroke-width:2.6056;stroke-miterlimit:10;" x1="429.374" y1="373.402" x2="451.389" y2="373.402"/>
	
		<line style="fill:none;stroke:#778F47;stroke-width:2.6056;stroke-miterlimit:10;" x1="429.374" y1="382.434" x2="451.389" y2="382.434"/>
</g>
<path style="fill:#789049;" d="M321.499,145.548l9.701,9.702l-9.701,9.701l-9.701-9.701L321.499,145.548z M328.352,155.249
	l-6.853-6.853l-6.853,6.853l6.853,6.853L328.352,155.249z"/>
<path style="fill:#4A5C45;" d="M656.989,180.131l9.701,9.702l-9.701,9.701l-9.701-9.701L656.989,180.131z M663.842,189.832
	l-6.853-6.853l-6.853,6.853l6.853,6.853L663.842,189.832z"/>
<path style="fill:#789049;" d="M48.111,182.528l9.701,9.702l-9.701,9.701l-9.701-9.701L48.111,182.528z M54.964,192.23l-6.853-6.853
	l-6.853,6.853l6.853,6.853L54.964,192.23z"/>
<path style="fill:#4A5C45;" d="M558.706,392.279l9.701,9.702l-9.701,9.701l-9.701-9.701L558.706,392.279z M565.559,401.981
	l-6.853-6.853l-6.853,6.853l6.853,6.853L565.559,401.981z"/>
<path style="fill:#171717;" d="M329.777,452.208l9.701,9.701l-9.701,9.701l-9.701-9.701L329.777,452.208z M336.63,461.91
	l-6.853-6.853l-6.853,6.853l6.853,6.853L336.63,461.91z"/>
<path style="fill:#789049;" d="M659.986,88.439l9.701,9.702l-9.701,9.701l-9.701-9.701L659.986,88.439z M666.839,98.141
	l-6.853-6.853l-6.853,6.853l6.853,6.853L666.839,98.141z"/>
<path style="fill:#171717;" d="M499.376,26.113l9.701,9.702l-9.701,9.701l-9.701-9.701L499.376,26.113z M506.229,35.815
	l-6.853-6.853l-6.853,6.853l6.853,6.853L506.229,35.815z"/>
<path style="fill:#171717;" d="M457.426,224.478l9.701,9.702l-9.701,9.701l-9.701-9.701L457.426,224.478z M464.279,234.18
	l-6.853-6.853l-6.853,6.853l6.853,6.853L464.279,234.18z"/>
<path style="fill:#171717;" d="M350.371,303.817l9.701,9.702l-9.701,9.701l-9.701-9.701L350.371,303.817z M357.224,313.519
	l-6.853-6.853l-6.853,6.853l6.853,6.853L357.224,313.519z"/>
<path style="fill:#171717;" d="M108.04,439.024l9.701,9.702l-9.701,9.701l-9.701-9.701L108.04,439.024z M114.893,448.725
	l-6.853-6.853l-6.853,6.853l6.853,6.853L114.893,448.725z"/>
<path style="fill:#171717;" d="M408.616,176.979h17.947v17.947h-17.947V176.979z M423.928,179.614H411.25v12.678h12.678V179.614z"/>
<path style="fill:#4A5C45;" d="M99.666,104.15h17.947v17.947H99.666V104.15z M114.978,106.784H102.3v12.677h12.678V106.784z"/>
<path style="fill:#789049;" d="M640.824,300.717h17.947v17.947h-17.947V300.717z M656.137,303.351h-12.678v12.678h12.678V303.351z"
	/>
<path style="fill:#171717;" d="M280.052,367.837h17.947v17.947h-17.947V367.837z M295.364,370.472h-12.678v12.678h12.678V370.472z"
	/>
<path style="fill:#171717;" d="M474.222,455.333h17.947v17.947h-17.947V455.333z M489.534,457.968h-12.678v12.677h12.678V457.968z"
	/>
<path style="fill:#171717;" d="M349.569,27.441h17.947v17.947h-17.947V27.441z M364.882,30.075h-12.678v12.677h12.678V30.075z"/>
<path style="fill:#4A5C45;" d="M32.165,349.259h17.947v17.947H32.165V349.259z M47.478,351.893H34.8v12.678h12.678V351.893z"/>
<path style="fill:#789049;stroke:#778F47;stroke-miterlimit:10;" d="M165.621,159.595c0.135,0,0.271,0.052,0.374,0.155l6.291,6.291
	l6.323-6.323l6.409,6.408l6.494-6.494l6.409,6.409l5.949-5.949c0.207-0.207,0.541-0.207,0.748,0c0.207,0.206,0.207,0.541,0,0.748
	l-6.697,6.697l-6.409-6.409l-6.494,6.494l-6.409-6.409l-6.323,6.323l-7.039-7.039c-0.207-0.206-0.207-0.541,0-0.748
	C165.351,159.647,165.486,159.595,165.621,159.595z"/>
<path style="fill:#4A5C45;stroke:#4A5C45;stroke-miterlimit:10;" d="M340.938,200.836c0.135,0,0.271,0.052,0.374,0.155l6.291,6.291
	l6.323-6.323l6.409,6.409l6.494-6.494l6.409,6.409l5.949-5.949c0.207-0.207,0.541-0.207,0.748,0c0.207,0.206,0.207,0.541,0,0.748
	l-6.697,6.697l-6.409-6.409l-6.494,6.494l-6.409-6.409l-6.323,6.323l-7.039-7.039c-0.207-0.206-0.207-0.541,0-0.748
	C340.667,200.888,340.802,200.836,340.938,200.836z"/>
<path style="fill:#171717;stroke:#171717;stroke-miterlimit:10;" d="M551.938,157.293c0.135,0,0.271,0.052,0.374,0.155l6.291,6.291
	l6.323-6.323l6.409,6.409l6.494-6.494l6.409,6.409l5.949-5.949c0.207-0.206,0.541-0.206,0.748,0c0.207,0.206,0.207,0.541,0,0.748
	l-6.697,6.697l-6.409-6.409l-6.494,6.494l-6.409-6.409l-6.323,6.323l-7.039-7.039c-0.207-0.206-0.207-0.541,0-0.748
	C551.668,157.345,551.803,157.293,551.938,157.293z"/>
<path style="fill:#171717;stroke:#171717;stroke-miterlimit:10;" d="M229.412,323.899c0.135,0,0.271,0.052,0.374,0.155l6.291,6.291
	l6.323-6.323l6.409,6.409l6.494-6.494l6.408,6.409l5.949-5.949c0.207-0.207,0.541-0.207,0.748,0c0.207,0.206,0.207,0.541,0,0.748
	l-6.697,6.697l-6.408-6.409l-6.494,6.494l-6.409-6.409l-6.323,6.323l-7.039-7.039c-0.206-0.206-0.206-0.541,0-0.748
	C229.141,323.951,229.276,323.899,229.412,323.899z"/>
<path style="fill:#789049;stroke:#778F47;stroke-miterlimit:10;" d="M19.733,279.798c0.135,0,0.271,0.052,0.374,0.155l6.291,6.291
	l6.323-6.323l6.409,6.409l6.494-6.494l6.409,6.409l5.949-5.949c0.207-0.207,0.541-0.207,0.748,0c0.207,0.206,0.207,0.541,0,0.748
	l-6.697,6.697l-6.409-6.409l-6.494,6.494l-6.409-6.409l-6.323,6.323l-7.039-7.039c-0.207-0.206-0.207-0.541,0-0.748
	C19.462,279.85,19.597,279.798,19.733,279.798z"/>
<path style="fill:#171717;stroke:#171717;stroke-miterlimit:10;" d="M513.523,365.173c0.135,0,0.271,0.052,0.374,0.155l6.291,6.291
	l6.323-6.323l6.409,6.409l6.494-6.494l6.409,6.409l5.949-5.949c0.207-0.206,0.541-0.206,0.748,0c0.207,0.206,0.207,0.541,0,0.748
	l-6.697,6.697l-6.409-6.409l-6.494,6.494l-6.409-6.409l-6.323,6.323l-7.039-7.039c-0.206-0.206-0.206-0.542,0-0.748
	C513.252,365.225,513.388,365.173,513.523,365.173z"/>
<path style="fill:#4A5C45;stroke:#4A5C45;stroke-miterlimit:10;" d="M699.656,63.669c0.135,0,0.271,0.052,0.374,0.155l6.291,6.291
	l6.323-6.323l6.409,6.409l6.494-6.494l6.409,6.409l5.949-5.949c0.207-0.207,0.541-0.207,0.748,0c0.206,0.206,0.206,0.541,0,0.748
	l-6.697,6.697l-6.409-6.409l-6.494,6.494l-6.409-6.409l-6.323,6.323l-7.039-7.039c-0.207-0.206-0.207-0.541,0-0.748
	C699.385,63.72,699.521,63.669,699.656,63.669z"/>
<path style="fill:#4A5C45;stroke:#4A5C45;stroke-miterlimit:10;" d="M699.614,478.795c0.135,0,0.271,0.052,0.374,0.155l6.291,6.291
	l6.323-6.323l6.409,6.409l6.494-6.494l6.409,6.409l5.949-5.949c0.207-0.207,0.541-0.207,0.748,0c0.207,0.206,0.207,0.541,0,0.748
	l-6.697,6.697l-6.409-6.409l-6.494,6.494l-6.409-6.409l-6.323,6.323l-7.039-7.039c-0.207-0.206-0.207-0.541,0-0.748
	C699.343,478.847,699.479,478.795,699.614,478.795z"/>
<path style="fill:#789049;stroke:#778F47;stroke-miterlimit:10;" d="M131.986,465.72c0.135,0,0.271,0.052,0.374,0.155l6.291,6.291
	l6.323-6.323l6.409,6.409l6.494-6.494l6.409,6.409l5.949-5.949c0.207-0.207,0.541-0.207,0.748,0c0.207,0.206,0.207,0.541,0,0.748
	l-6.697,6.697l-6.409-6.409l-6.494,6.494l-6.409-6.409l-6.323,6.323l-7.039-7.039c-0.207-0.206-0.207-0.541,0-0.748
	C131.715,465.771,131.85,465.72,131.986,465.72z"/>
<path style="fill:#171717;stroke:#171717;stroke-miterlimit:10;" d="M279.489,17.992c0.135,0,0.271,0.052,0.374,0.155l6.291,6.291
	l6.323-6.323l6.409,6.409l6.494-6.494l6.409,6.409l5.949-5.949c0.207-0.207,0.541-0.207,0.748,0c0.207,0.206,0.207,0.541,0,0.748
	l-6.697,6.697l-6.409-6.409l-6.494,6.494l-6.409-6.409l-6.323,6.323l-7.039-7.039c-0.207-0.206-0.207-0.541,0-0.748
	C279.218,18.044,279.353,17.992,279.489,17.992z"/>
<g>
	<path style="fill:#DFE6C8;" d="M556.168,16.264c-1.108,0-2.007,0.899-2.007,2.007c0,1.107,0.898,2.006,2.007,2.006
		c1.108,0,2.007-0.899,2.007-2.006C558.175,17.162,557.276,16.264,556.168,16.264z"/>
	<path style="fill:#DFE6C8;" d="M567.728,16.264c-1.108,0-2.007,0.899-2.007,2.007c0,1.107,0.899,2.006,2.007,2.006
		c1.108,0,2.007-0.899,2.007-2.006C569.734,17.162,568.836,16.264,567.728,16.264z"/>
	<path style="fill:#DFE6C8;" d="M579.287,16.264c-1.108,0-2.006,0.899-2.006,2.007c0,1.107,0.898,2.006,2.006,2.006
		c1.109,0,2.007-0.899,2.007-2.006C581.294,17.162,580.395,16.264,579.287,16.264z"/>
	<path style="fill:#DFE6C8;" d="M590.846,16.264c-1.108,0-2.006,0.899-2.006,2.007c0,1.107,0.898,2.006,2.006,2.006
		s2.007-0.899,2.007-2.006C592.853,17.162,591.954,16.264,590.846,16.264z"/>
	<path style="fill:#DFE6C8;" d="M602.405,16.264c-1.108,0-2.007,0.899-2.007,2.007c0,1.107,0.899,2.006,2.007,2.006
		s2.007-0.899,2.007-2.006C604.412,17.162,603.514,16.264,602.405,16.264z"/>
	<path style="fill:#DFE6C8;" d="M561.79,24.952c-1.108,0-2.007,0.899-2.007,2.006c0,1.109,0.899,2.007,2.007,2.007
		c1.108,0,2.006-0.898,2.006-2.007C563.797,25.851,562.899,24.952,561.79,24.952z"/>
	<path style="fill:#DFE6C8;" d="M573.35,24.952c-1.109,0-2.007,0.899-2.007,2.006c0,1.109,0.899,2.007,2.007,2.007
		c1.108,0,2.006-0.898,2.006-2.007C575.356,25.851,574.458,24.952,573.35,24.952z"/>
	<path style="fill:#DFE6C8;" d="M584.908,24.952c-1.108,0-2.006,0.899-2.006,2.006c0,1.109,0.898,2.007,2.006,2.007
		c1.108,0,2.007-0.898,2.007-2.007C586.915,25.851,586.017,24.952,584.908,24.952z"/>
	<path style="fill:#DFE6C8;" d="M596.468,24.952c-1.108,0-2.007,0.899-2.007,2.006c0,1.109,0.899,2.007,2.007,2.007
		c1.108,0,2.007-0.898,2.007-2.007C598.475,25.851,597.576,24.952,596.468,24.952z"/>
	<path style="fill:#DFE6C8;" d="M608.027,24.952c-1.108,0-2.006,0.899-2.006,2.006c0,1.109,0.898,2.007,2.006,2.007
		c1.109,0,2.007-0.898,2.007-2.007C610.034,25.851,609.136,24.952,608.027,24.952z"/>
	<path style="fill:#DFE6C8;" d="M556.168,34.662c-1.108,0-2.007,0.899-2.007,2.007c0,1.108,0.898,2.007,2.007,2.007
		c1.108,0,2.007-0.899,2.007-2.007C558.175,35.561,557.276,34.662,556.168,34.662z"/>
	<path style="fill:#DFE6C8;" d="M567.728,34.662c-1.108,0-2.007,0.899-2.007,2.007c0,1.108,0.899,2.007,2.007,2.007
		c1.108,0,2.007-0.899,2.007-2.007C569.734,35.561,568.836,34.662,567.728,34.662z"/>
	<path style="fill:#DFE6C8;" d="M579.287,34.662c-1.108,0-2.006,0.899-2.006,2.007c0,1.108,0.898,2.007,2.006,2.007
		c1.109,0,2.007-0.899,2.007-2.007C581.294,35.561,580.395,34.662,579.287,34.662z"/>
	<path style="fill:#DFE6C8;" d="M590.846,34.662c-1.108,0-2.006,0.899-2.006,2.007c0,1.108,0.898,2.007,2.006,2.007
		s2.007-0.899,2.007-2.007C592.853,35.561,591.954,34.662,590.846,34.662z"/>
	<path style="fill:#DFE6C8;" d="M602.405,34.662c-1.108,0-2.007,0.899-2.007,2.007c0,1.108,0.899,2.007,2.007,2.007
		s2.007-0.899,2.007-2.007C604.412,35.561,603.514,34.662,602.405,34.662z"/>
	<path style="fill:#DFE6C8;" d="M561.79,43.351c-1.108,0-2.007,0.899-2.007,2.007c0,1.108,0.899,2.007,2.007,2.007
		c1.108,0,2.006-0.899,2.006-2.007C563.797,44.249,562.899,43.351,561.79,43.351z"/>
	<path style="fill:#DFE6C8;" d="M573.35,43.351c-1.109,0-2.007,0.899-2.007,2.007c0,1.108,0.899,2.007,2.007,2.007
		c1.108,0,2.006-0.899,2.006-2.007C575.356,44.249,574.458,43.351,573.35,43.351z"/>
	<path style="fill:#DFE6C8;" d="M584.908,43.351c-1.108,0-2.006,0.899-2.006,2.007c0,1.108,0.898,2.007,2.006,2.007
		c1.108,0,2.007-0.899,2.007-2.007C586.915,44.249,586.017,43.351,584.908,43.351z"/>
	<path style="fill:#DFE6C8;" d="M596.468,43.351c-1.108,0-2.007,0.899-2.007,2.007c0,1.108,0.899,2.007,2.007,2.007
		c1.108,0,2.007-0.899,2.007-2.007C598.475,44.249,597.576,43.351,596.468,43.351z"/>
	<path style="fill:#DFE6C8;" d="M608.027,43.351c-1.108,0-2.006,0.899-2.006,2.007c0,1.108,0.898,2.007,2.006,2.007
		c1.109,0,2.007-0.899,2.007-2.007C610.034,44.249,609.136,43.351,608.027,43.351z"/>
	<path style="fill:#DFE6C8;" d="M556.168,53.062c-1.108,0-2.007,0.899-2.007,2.007c0,1.107,0.898,2.006,2.007,2.006
		c1.108,0,2.007-0.899,2.007-2.006C558.175,53.96,557.276,53.062,556.168,53.062z"/>
	<path style="fill:#DFE6C8;" d="M567.728,53.062c-1.108,0-2.007,0.899-2.007,2.007c0,1.107,0.899,2.006,2.007,2.006
		c1.108,0,2.007-0.899,2.007-2.006C569.734,53.96,568.836,53.062,567.728,53.062z"/>
	<path style="fill:#DFE6C8;" d="M579.287,53.062c-1.108,0-2.006,0.899-2.006,2.007c0,1.107,0.898,2.006,2.006,2.006
		c1.109,0,2.007-0.899,2.007-2.006C581.294,53.96,580.395,53.062,579.287,53.062z"/>
	<path style="fill:#DFE6C8;" d="M590.846,53.062c-1.108,0-2.006,0.899-2.006,2.007c0,1.107,0.898,2.006,2.006,2.006
		s2.007-0.899,2.007-2.006C592.853,53.96,591.954,53.062,590.846,53.062z"/>
	<path style="fill:#DFE6C8;" d="M602.405,53.062c-1.108,0-2.007,0.899-2.007,2.007c0,1.107,0.899,2.006,2.007,2.006
		s2.007-0.899,2.007-2.006C604.412,53.96,603.514,53.062,602.405,53.062z"/>
	<path style="fill:#DFE6C8;" d="M561.79,61.75c-1.108,0-2.007,0.899-2.007,2.007c0,1.109,0.899,2.006,2.007,2.006
		c1.108,0,2.006-0.897,2.006-2.006C563.797,62.649,562.899,61.75,561.79,61.75z"/>
	<path style="fill:#DFE6C8;" d="M573.35,61.75c-1.109,0-2.007,0.899-2.007,2.007c0,1.109,0.899,2.006,2.007,2.006
		c1.108,0,2.006-0.897,2.006-2.006C575.356,62.649,574.458,61.75,573.35,61.75z"/>
	<path style="fill:#DFE6C8;" d="M584.908,61.75c-1.108,0-2.006,0.899-2.006,2.007c0,1.109,0.898,2.006,2.006,2.006
		c1.108,0,2.007-0.897,2.007-2.006C586.915,62.649,586.017,61.75,584.908,61.75z"/>
	<path style="fill:#DFE6C8;" d="M596.468,61.75c-1.108,0-2.007,0.899-2.007,2.007c0,1.109,0.899,2.006,2.007,2.006
		c1.108,0,2.007-0.897,2.007-2.006C598.475,62.649,597.576,61.75,596.468,61.75z"/>
	<path style="fill:#DFE6C8;" d="M608.027,61.75c-1.108,0-2.006,0.899-2.006,2.007c0,1.109,0.898,2.006,2.006,2.006
		c1.109,0,2.007-0.897,2.007-2.006C610.034,62.649,609.136,61.75,608.027,61.75z"/>
</g>
<path style="fill:none;stroke:#171717;stroke-width:2;stroke-miterlimit:10;" d="M244.714,67.36
	c-1.145,5.335-6.105,7.637-7.948,8.318c-0.214,0.08-0.214,0.383,0,0.462c1.843,0.682,6.803,2.984,7.948,8.319
	c0.056,0.261,0.42,0.261,0.477,0c1.145-5.335,6.105-7.638,7.948-8.319c0.214-0.079,0.214-0.382,0-0.462
	c-1.843-0.682-6.803-2.983-7.948-8.318C245.134,67.098,244.77,67.098,244.714,67.36z"/>
<path style="fill:none;stroke:#778F47;stroke-width:2;stroke-miterlimit:10;" d="M515.641,162.249
	c-1.145,5.335-6.105,7.637-7.948,8.318c-0.214,0.08-0.214,0.383,0,0.462c1.843,0.682,6.803,2.984,7.948,8.319
	c0.056,0.261,0.42,0.261,0.477,0c1.145-5.335,6.105-7.638,7.948-8.319c0.214-0.079,0.214-0.382,0-0.462
	c-1.843-0.682-6.803-2.983-7.948-8.318C516.061,161.987,515.697,161.987,515.641,162.249z"/>
<path style="fill:none;stroke:#778F47;stroke-width:2;stroke-miterlimit:10;" d="M331.607,253.354
	c-1.145,5.335-6.105,7.637-7.948,8.318c-0.214,0.08-0.214,0.383,0,0.462c1.843,0.682,6.803,2.984,7.948,8.319
	c0.056,0.261,0.42,0.261,0.477,0c1.145-5.335,6.105-7.638,7.948-8.319c0.214-0.079,0.214-0.382,0-0.462
	c-1.843-0.682-6.803-2.983-7.948-8.318C332.027,253.092,331.663,253.092,331.607,253.354z"/>
<path style="fill:none;stroke:#778F47;stroke-width:2;stroke-miterlimit:10;" d="M63.172,400.804
	c-1.145,5.335-6.105,7.637-7.948,8.318c-0.214,0.08-0.214,0.383,0,0.462c1.843,0.682,6.803,2.984,7.948,8.319
	c0.056,0.261,0.42,0.261,0.477,0c1.145-5.335,6.105-7.638,7.948-8.319c0.214-0.079,0.214-0.382,0-0.462
	c-1.843-0.682-6.803-2.983-7.948-8.318C63.592,400.542,63.228,400.542,63.172,400.804z"/>
<path style="fill:none;stroke:#171717;stroke-width:2;stroke-miterlimit:10;" d="M46.429,78.898
	c-1.145,5.335-6.105,7.637-7.948,8.318c-0.214,0.08-0.214,0.383,0,0.462c1.843,0.682,6.803,2.984,7.948,8.319
	c0.056,0.261,0.42,0.261,0.477,0c1.145-5.335,6.105-7.638,7.948-8.319c0.214-0.079,0.214-0.382,0-0.462
	c-1.843-0.682-6.803-2.983-7.948-8.318C46.849,78.636,46.485,78.636,46.429,78.898z"/>
<path style="fill:none;stroke:#4A5C45;stroke-width:2;stroke-miterlimit:10;" d="M576.277,239.851
	c-1.145,5.335-6.105,7.637-7.948,8.318c-0.214,0.08-0.214,0.383,0,0.462c1.843,0.682,6.803,2.984,7.948,8.319
	c0.056,0.261,0.42,0.261,0.477,0c1.145-5.335,6.105-7.638,7.948-8.319c0.214-0.079,0.214-0.382,0-0.462
	c-1.843-0.682-6.803-2.983-7.948-8.318C576.697,239.589,576.333,239.589,576.277,239.851z"/>
<path style="fill:none;stroke:#778F47;stroke-width:2;stroke-miterlimit:10;" d="M547.111,453.734
	c-1.145,5.335-6.105,7.637-7.948,8.318c-0.214,0.08-0.214,0.383,0,0.462c1.843,0.682,6.803,2.984,7.948,8.319
	c0.056,0.261,0.42,0.261,0.477,0c1.145-5.335,6.105-7.638,7.948-8.319c0.214-0.079,0.214-0.382,0-0.462
	c-1.843-0.682-6.803-2.983-7.948-8.318C547.531,453.473,547.167,453.473,547.111,453.734z"/>
<path style="fill:none;stroke:#171717;stroke-width:2;stroke-miterlimit:10;" d="M407.222,319.247
	c-1.145,5.335-6.105,7.637-7.948,8.318c-0.214,0.08-0.214,0.383,0,0.462c1.843,0.682,6.803,2.984,7.948,8.319
	c0.056,0.261,0.42,0.261,0.477,0c1.145-5.335,6.105-7.638,7.948-8.319c0.214-0.079,0.214-0.382,0-0.462
	c-1.843-0.682-6.803-2.983-7.948-8.318C407.643,318.985,407.279,318.985,407.222,319.247z"/>
<path style="fill:none;stroke:#171717;stroke-width:2;stroke-miterlimit:10;" d="M726.427,157.214
	c-1.145,5.335-6.105,7.637-7.948,8.318c-0.214,0.08-0.214,0.383,0,0.462c1.843,0.682,6.803,2.984,7.948,8.319
	c0.056,0.261,0.42,0.261,0.477,0c1.145-5.335,6.105-7.638,7.948-8.319c0.214-0.079,0.214-0.382,0-0.462
	c-1.843-0.682-6.803-2.983-7.948-8.318C726.848,156.952,726.484,156.952,726.427,157.214z"/>
<path style="fill:none;stroke:#778F47;stroke-width:2;stroke-miterlimit:10;" d="M451.511,106.984
	c-1.145,5.335-6.105,7.637-7.948,8.318c-0.214,0.08-0.214,0.383,0,0.462c1.843,0.682,6.803,2.984,7.948,8.319
	c0.056,0.261,0.42,0.261,0.477,0c1.145-5.335,6.105-7.638,7.948-8.319c0.214-0.079,0.214-0.382,0-0.462
	c-1.843-0.682-6.803-2.983-7.948-8.318C451.932,106.722,451.568,106.722,451.511,106.984z"/>
<path style="fill:none;stroke:#4A5C45;stroke-width:2;stroke-miterlimit:10;" d="M193.879,290.081
	c-1.145,5.335-6.105,7.637-7.948,8.318c-0.214,0.08-0.214,0.383,0,0.462c1.843,0.682,6.803,2.984,7.948,8.319
	c0.056,0.261,0.42,0.261,0.477,0c1.145-5.335,6.105-7.638,7.948-8.319c0.214-0.079,0.214-0.382,0-0.462
	c-1.843-0.682-6.803-2.983-7.948-8.318C194.299,289.819,193.935,289.819,193.879,290.081z"/>
<g>
	
		<line style="fill:none;stroke:#171717;stroke-width:2;stroke-linecap:round;stroke-miterlimit:10;" x1="247.048" y1="142.382" x2="247.048" y2="153.497"/>
	
		<line style="fill:none;stroke:#171717;stroke-width:2;stroke-linecap:round;stroke-miterlimit:10;" x1="241.49" y1="147.94" x2="252.605" y2="147.94"/>
</g>
<g>
	
		<line style="fill:none;stroke:#778F47;stroke-width:2;stroke-linecap:round;stroke-miterlimit:10;" x1="426.904" y1="48.943" x2="426.904" y2="60.058"/>
	
		<line style="fill:none;stroke:#778F47;stroke-width:2;stroke-linecap:round;stroke-miterlimit:10;" x1="421.347" y1="54.501" x2="432.462" y2="54.501"/>
</g>
<g>
	
		<line style="fill:none;stroke:#171717;stroke-width:2;stroke-linecap:round;stroke-miterlimit:10;" x1="139.026" y1="191.532" x2="139.026" y2="202.647"/>
	
		<line style="fill:none;stroke:#171717;stroke-width:2;stroke-linecap:round;stroke-miterlimit:10;" x1="133.468" y1="197.09" x2="144.583" y2="197.09"/>
</g>
<g>
	
		<line style="fill:none;stroke:#171717;stroke-width:2;stroke-linecap:round;stroke-miterlimit:10;" x1="398.279" y1="277.95" x2="398.279" y2="289.065"/>
	
		<line style="fill:none;stroke:#171717;stroke-width:2;stroke-linecap:round;stroke-miterlimit:10;" x1="392.721" y1="283.507" x2="403.836" y2="283.507"/>
</g>
<g>
	
		<line style="fill:none;stroke:#171717;stroke-width:2;stroke-linecap:round;stroke-miterlimit:10;" x1="513.862" y1="91.612" x2="513.862" y2="102.727"/>
	
		<line style="fill:none;stroke:#171717;stroke-width:2;stroke-linecap:round;stroke-miterlimit:10;" x1="508.305" y1="97.169" x2="519.42" y2="97.169"/>
</g>
<g>
	
		<line style="fill:none;stroke:#171717;stroke-width:2;stroke-linecap:round;stroke-miterlimit:10;" x1="651.05" y1="222.859" x2="651.05" y2="233.974"/>
	
		<line style="fill:none;stroke:#171717;stroke-width:2;stroke-linecap:round;stroke-miterlimit:10;" x1="645.493" y1="228.416" x2="656.608" y2="228.416"/>
</g>
<g>
	
		<line style="fill:none;stroke:#4A5C45;stroke-width:2;stroke-linecap:round;stroke-miterlimit:10;" x1="523.584" y1="316.298" x2="523.584" y2="327.413"/>
	
		<line style="fill:none;stroke:#4A5C45;stroke-width:2;stroke-linecap:round;stroke-miterlimit:10;" x1="518.027" y1="321.855" x2="529.142" y2="321.855"/>
</g>
<g>
	
		<line style="fill:none;stroke:#778F47;stroke-width:2;stroke-linecap:round;stroke-miterlimit:10;" x1="719.644" y1="349.244" x2="719.644" y2="360.359"/>
	
		<line style="fill:none;stroke:#778F47;stroke-width:2;stroke-linecap:round;stroke-miterlimit:10;" x1="714.087" y1="354.802" x2="725.202" y2="354.802"/>
</g>
<g>
	
		<line style="fill:none;stroke:#4A5C45;stroke-width:2;stroke-linecap:round;stroke-miterlimit:10;" x1="248.128" y1="404.876" x2="248.128" y2="415.991"/>
	
		<line style="fill:none;stroke:#4A5C45;stroke-width:2;stroke-linecap:round;stroke-miterlimit:10;" x1="242.57" y1="410.433" x2="253.686" y2="410.433"/>
</g>
<g>
	
		<line style="fill:none;stroke:#171717;stroke-width:2;stroke-linecap:round;stroke-miterlimit:10;" x1="104.459" y1="331.961" x2="104.459" y2="343.076"/>
	
		<line style="fill:none;stroke:#171717;stroke-width:2;stroke-linecap:round;stroke-miterlimit:10;" x1="98.901" y1="337.518" x2="110.017" y2="337.518"/>
</g>
<g>
	
		<line style="fill:none;stroke:#171717;stroke-width:2;stroke-linecap:round;stroke-miterlimit:10;" x1="378.295" y1="154.805" x2="378.295" y2="165.92"/>
	
		<line style="fill:none;stroke:#171717;stroke-width:2;stroke-linecap:round;stroke-miterlimit:10;" x1="372.737" y1="160.362" x2="383.852" y2="160.362"/>
</g>
<path style="fill:none;stroke:#171717;stroke-width:2;stroke-miterlimit:10;" d="M224.941,252.807c0,3.979-3.226,7.204-7.204,7.204
	s-7.204-3.225-7.204-7.204c0-3.979,3.226-7.203,7.204-7.203S224.941,248.829,224.941,252.807z"/>
<path style="fill:none;stroke:#171717;stroke-width:2;stroke-miterlimit:10;" d="M167.712,77.596c0,3.979-3.226,7.204-7.204,7.204
	s-7.204-3.226-7.204-7.204c0-3.979,3.226-7.203,7.204-7.203S167.712,73.618,167.712,77.596z"/>
<path style="fill:none;stroke:#171717;stroke-width:2;stroke-miterlimit:10;" d="M547.189,214.947c0,3.979-3.226,7.204-7.204,7.204
	s-7.204-3.226-7.204-7.204c0-3.979,3.226-7.203,7.204-7.203S547.189,210.969,547.189,214.947z"/>
<path style="fill:none;stroke:#778F47;stroke-width:2;stroke-miterlimit:10;" d="M659.447,470.28c0,3.979-3.226,7.204-7.204,7.204
	s-7.204-3.225-7.204-7.204c0-3.978,3.226-7.203,7.204-7.203S659.447,466.302,659.447,470.28z"/>
<path style="fill:none;stroke:#171717;stroke-width:2;stroke-miterlimit:10;" d="M441.974,415.692c0,3.979-3.226,7.204-7.204,7.204
	c-3.978,0-7.204-3.226-7.204-7.204c0-3.979,3.226-7.203,7.204-7.203C438.749,408.489,441.974,411.713,441.974,415.692z"/>
<path style="fill:none;stroke:#171717;stroke-width:2;stroke-miterlimit:10;" d="M32.121,429.339c0,3.979-3.226,7.204-7.204,7.204
	s-7.204-3.225-7.204-7.204c0-3.979,3.226-7.203,7.204-7.203S32.121,425.36,32.121,429.339z"/>
<path style="fill:none;stroke:#171717;stroke-width:2;stroke-miterlimit:10;" d="M416.441,124.701c0,3.979-3.226,7.204-7.204,7.204
	c-3.979,0-7.204-3.226-7.204-7.204c0-3.979,3.226-7.203,7.204-7.203C413.215,117.497,416.441,120.722,416.441,124.701z"/>
<path style="fill:none;stroke:#171717;stroke-width:2;stroke-miterlimit:10;" d="M618.946,80.678c0,3.979-3.226,7.204-7.204,7.204
	c-3.979,0-7.204-3.226-7.204-7.204c0-3.979,3.226-7.203,7.204-7.203C615.72,73.475,618.946,76.699,618.946,80.678z"/>
<path style="fill:none;stroke:#171717;stroke-width:2;stroke-miterlimit:10;" d="M101.677,277.46c0,3.979-3.226,7.204-7.204,7.204
	s-7.204-3.225-7.204-7.204c0-3.978,3.226-7.203,7.204-7.203S101.677,273.481,101.677,277.46z"/>
<path style="fill:none;stroke:#4A5C45;stroke-width:2;stroke-miterlimit:10;" d="M28.159,59.106c0,3.979-3.226,7.204-7.204,7.204
	s-7.204-3.226-7.204-7.204c0-3.979,3.226-7.203,7.204-7.203S28.159,55.128,28.159,59.106z"/>
<path style="fill:none;stroke:#171717;stroke-width:2;stroke-miterlimit:10;" d="M678.817,351.858c0,3.979-3.226,7.204-7.204,7.204
	s-7.204-3.225-7.204-7.204c0-3.978,3.226-7.203,7.204-7.203S678.817,347.88,678.817,351.858z"/>
<path style="fill:none;stroke:#171717;stroke-width:2;stroke-miterlimit:10;" d="M258.852,474.543c0,3.979-3.226,7.204-7.204,7.204
	s-7.204-3.225-7.204-7.204c0-3.978,3.226-7.203,7.204-7.203S258.852,470.564,258.852,474.543z"/>
</svg>
